<svg xmlns="http://www.w3.org/2000/svg" width="164.826" height="44.466" viewBox="0 0 164.826 44.466">
  <g id="Groupe_400" data-name="Groupe 400" transform="translate(-389.737 -387.276)">
    <path id="Tracé_1045" data-name="Tracé 1045" d="M643.933,484.306v4.776a5.285,5.285,0,0,0-1.963-.177,5.642,5.642,0,0,0-2.022.515,4.52,4.52,0,0,0-2.464,2.717,6.492,6.492,0,0,0-.319,2.1v10.378h-5.151V488.819a4.513,4.513,0,0,1,4.513-4.513h0v3.269a7.227,7.227,0,0,1,.564-.861,5.506,5.506,0,0,1,1.615-1.428,6.471,6.471,0,0,1,1.6-.7,8.479,8.479,0,0,1,1.787-.321A9.617,9.617,0,0,1,643.933,484.306Z" transform="translate(-207.264 -82.947)" fill="#fff"/>
    <path id="Tracé_1046" data-name="Tracé 1046" d="M746.178,490.289a14.091,14.091,0,0,0-2.2-6.068,8.841,8.841,0,0,0-4.19-3.359,9.524,9.524,0,0,0-5.633-.218,10.3,10.3,0,0,0-4.868,2.549,9.565,9.565,0,0,0-2.652,4.556,12.1,12.1,0,0,0,.046,5.939,10.736,10.736,0,0,0,2.549,4.953,9.691,9.691,0,0,0,4.473,2.75,10.988,10.988,0,0,0,5.661.047,10.039,10.039,0,0,0,4.908-2.74,9.017,9.017,0,0,0,2.531-5.042l-1.4-.067a6.687,6.687,0,0,0-5.053,2.021l-.018.018a4.821,4.821,0,0,1-2.355,1.231,4.345,4.345,0,0,1-3.879-.679,5.929,5.929,0,0,1-1.793-2.621Zm-14.618-.457a5.677,5.677,0,0,1,.449-2.491,4.557,4.557,0,0,1,3.376-2.427,3.71,3.71,0,0,1,3.451.586,5.562,5.562,0,0,1,1.432,2.279Z" transform="translate(-287.908 -79.602)" fill="#fff"/>
    <path id="Tracé_1047" data-name="Tracé 1047" d="M898.8,437.892v7.426a8.286,8.286,0,0,0-4.586-1.222,9.192,9.192,0,0,0-5.077,1.391,9.377,9.377,0,0,0-3.357,3.809,13.342,13.342,0,0,0-.017,10.989,9.459,9.459,0,0,0,3.281,3.836,9.5,9.5,0,0,0,9.963,0q.224-.155.434-.324v1.171h0a4.51,4.51,0,0,0,4.51-4.51V437.892Zm.189,20.157a4.279,4.279,0,0,1-1.477,2.162,4.449,4.449,0,0,1-2.736.771,4.263,4.263,0,0,1-2.707-.827,4.875,4.875,0,0,1-1.561-2.228,9.076,9.076,0,0,1-.508-3.112,8.741,8.741,0,0,1,.528-3.094,4.9,4.9,0,0,1,1.627-2.236,4.494,4.494,0,0,1,2.81-.837,4.081,4.081,0,0,1,2.586.771,4.364,4.364,0,0,1,1.438,2.162,11.811,11.811,0,0,1,0,6.469Z" transform="translate(-423.336 -43.301)" fill="#fff"/>
    <path id="Tracé_1048" data-name="Tracé 1048" d="M1055.144,401.544h-9.116l-8.045,26.323a4.655,4.655,0,0,0,4.452,6.015h0l2.046-6.736h12.179l2.078,6.736h6.287Zm-8.928,19.9,4.309-14.172,4.373,14.172Z" transform="translate(-554.387 -12.206)" fill="#fff"/>
    <path id="Tracé_1049" data-name="Tracé 1049" d="M1264.224,486.019a9.372,9.372,0,0,0-3.355-3.809,9.2,9.2,0,0,0-5.077-1.391,8.157,8.157,0,0,0-4.869,1.411c-.123.086-.24.177-.358.272v-1.119h-4.513v24.179a5.153,5.153,0,0,0,5.153,5.153h0v-9.733a8.792,8.792,0,0,0,4.849,1.271,8.616,8.616,0,0,0,4.908-1.411,9.481,9.481,0,0,0,3.281-3.836,12.4,12.4,0,0,0,1.175-5.47A12.271,12.271,0,0,0,1264.224,486.019Zm-4.729,8.631a4.876,4.876,0,0,1-1.561,2.228,4.258,4.258,0,0,1-2.707.827,4.454,4.454,0,0,1-2.736-.771,4.274,4.274,0,0,1-1.475-2.162,11.813,11.813,0,0,1,0-6.469,4.362,4.362,0,0,1,1.438-2.162,4.068,4.068,0,0,1,2.584-.771,4.506,4.506,0,0,1,2.812.837,4.9,4.9,0,0,1,1.627,2.236,8.74,8.74,0,0,1,.525,3.094A9.074,9.074,0,0,1,1259.495,494.65Z" transform="translate(-732.563 -80.024)" fill="#fff"/>
    <path id="Tracé_1050" data-name="Tracé 1050" d="M1414.424,486.019a9.37,9.37,0,0,0-3.355-3.809,9.2,9.2,0,0,0-5.077-1.391,8.17,8.17,0,0,0-4.871,1.411c-.123.086-.24.177-.356.27v-1.117h-4.513v24.182a5.151,5.151,0,0,0,5.151,5.151h0v-9.735a8.775,8.775,0,0,0,4.852,1.274,8.616,8.616,0,0,0,4.908-1.411,9.5,9.5,0,0,0,3.281-3.836,13.329,13.329,0,0,0-.02-10.989Zm-4.729,8.631a4.875,4.875,0,0,1-1.561,2.228,4.262,4.262,0,0,1-2.707.827,4.449,4.449,0,0,1-2.736-.771,4.259,4.259,0,0,1-1.475-2.162,11.81,11.81,0,0,1,0-6.469,4.349,4.349,0,0,1,1.438-2.162,4.07,4.07,0,0,1,2.584-.771,4.505,4.505,0,0,1,2.812.837,4.919,4.919,0,0,1,1.627,2.236,8.8,8.8,0,0,1,.525,3.094A9.08,9.08,0,0,1,1409.7,494.65Z" transform="translate(-861.056 -80.024)" fill="#fff"/>
    <path id="Tracé_1051" data-name="Tracé 1051" d="M742.9,422.811a15.83,15.83,0,0,1-2.594,8.514,13.294,13.294,0,0,0,1.485-.94,14.223,14.223,0,0,0,3.226-3.251,15.563,15.563,0,0,0,2.108-4.228A8.614,8.614,0,0,0,742.9,422.811Z" transform="translate(-299.903 -30.213)" fill="#fff"/>
    <g id="Groupe_367" data-name="Groupe 367" transform="translate(389.737 387.276)">
      <path id="Tracé_1052" data-name="Tracé 1052" d="M414.1,507.919v.015a16.956,16.956,0,0,1-8.041,1.817,17.185,17.185,0,0,1-7.612-1.606c-.376-.182-.741-.378-1.1-.592a14.636,14.636,0,0,1-5.633-6.15,20.305,20.305,0,0,1-1.975-9.188,24.8,24.8,0,0,1,.149-2.773,16.6,16.6,0,0,0,12.35,13.678h0a10.542,10.542,0,0,0,3.818.645,11.3,11.3,0,0,0,2.981-.369,7.881,7.881,0,0,0,2.495-1.152c.087-.059.172-.121.253-.185a8.433,8.433,0,0,0,.693-.6h0a1.541,1.541,0,0,1-.443,2.367,15.764,15.764,0,0,1-19.378-3.888,15.773,15.773,0,0,0,19.916,6.959A1.092,1.092,0,0,1,414.1,507.919Z" transform="translate(-389.737 -474.677)" fill="#fff"/>
      <path id="Tracé_1053" data-name="Tracé 1053" d="M422.233,397.948h0l-6.406,1.777v0a10.857,10.857,0,0,0-.669-1.7c-.036-.075-.074-.149-.113-.222-.114-.215-.234-.423-.36-.624a8.322,8.322,0,0,0-2.015-2.212,7.688,7.688,0,0,0-.878-.577,8.251,8.251,0,0,0-2.028-.795c-.244-.061-.5-.114-.755-.159s-.525-.078-.8-.106c-.407-.04-.832-.059-1.27-.059a10.55,10.55,0,0,0-3.9.674,7.772,7.772,0,0,0-1.44.752,8.52,8.52,0,0,0-1,.786s0,0,0,0a8.525,8.525,0,0,0-.87.932c-.068.085-.133.17-.2.258-.191.26-.371.532-.54.819a10.185,10.185,0,0,0-.6,1.225,17.822,17.822,0,0,0,0,12.206,9.186,9.186,0,0,0,1.76,2.789c.073.076.146.152.222.227a8.125,8.125,0,0,0,.968.823c.087.062.175.125.263.184q.177.117.359.224a7.681,7.681,0,0,0,.762.391c.132.059.265.114.4.166a16.6,16.6,0,0,1-12.35-13.678v-.007q.073-.665.184-1.3a18.282,18.282,0,0,1,1.642-5.105,15.031,15.031,0,0,1,3.127-4.254q.377-.356.783-.686a14.741,14.741,0,0,1,1.724-1.207l.237-.14q.6-.343,1.232-.629a15.377,15.377,0,0,1,2.678-.913c.265-.066.534-.123.806-.177.454-.087.92-.158,1.395-.211s.96-.09,1.457-.111h0c.3-.01.6-.017.9-.017q.361,0,.717.01.533.018,1.048.059c.23.017.457.04.682.068s.447.057.667.09q.494.075.972.177a15.748,15.748,0,0,1,2.436.719c.289.113.575.234.854.362a13.839,13.839,0,0,1,2.363,1.391,14.967,14.967,0,0,1,1.394,1.149,0,0,0,0,1,0,0c.145.135.288.272.428.412q.468.473.89.982c.1.118.194.237.288.36a15.414,15.414,0,0,1,1.864,3.109c.128.284.25.572.364.868.076.2.151.395.22.6C422.166,397.743,422.2,397.846,422.233,397.948Z" transform="translate(-390.622 -387.285)" fill="#fff"/>
      <path id="Tracé_1054" data-name="Tracé 1054" d="M422.221,397.938l-6.406,1.776a10.859,10.859,0,0,0-.669-1.7c-.036-.075-.076-.149-.114-.222q-.169-.322-.359-.624a8.322,8.322,0,0,0-2.015-2.212,7.687,7.687,0,0,0-.878-.577,8.253,8.253,0,0,0-2.028-.8c-.244-.062-.5-.116-.755-.159s-.525-.08-.8-.106c-.407-.04-.832-.061-1.27-.061a10.511,10.511,0,0,0-3.9.676,7.771,7.771,0,0,0-1.44.752,8.172,8.172,0,0,0-1,.786s0,0,0,0a8.069,8.069,0,0,0-.87.932c-.068.085-.133.17-.2.258a8.879,8.879,0,0,0-.54.819,10.186,10.186,0,0,0-.6,1.225,17.822,17.822,0,0,0,0,12.206,9.186,9.186,0,0,0,1.76,2.789c.073.078.147.154.222.227a8.123,8.123,0,0,0,.968.823c.087.062.175.123.263.182.118.078.237.152.359.225a8.09,8.09,0,0,0,.762.391c.132.059.265.114.4.166a16.6,16.6,0,0,1-12.35-13.678.01.01,0,0,1,0-.007q.073-.665.185-1.3a18.283,18.283,0,0,1,1.642-5.105,15.031,15.031,0,0,1,3.127-4.254c.251-.237.513-.468.783-.686a14.749,14.749,0,0,1,1.724-1.209c.078-.047.158-.094.237-.139q.6-.343,1.232-.629a15.251,15.251,0,0,1,2.678-.915c.265-.064.534-.123.806-.175.454-.087.92-.158,1.395-.211s.961-.092,1.457-.111h0q.447-.018.9-.019c.241,0,.48,0,.717.012q.533.016,1.048.059.345.026.682.068c.224.026.447.055.667.09q.494.075.972.177a15.56,15.56,0,0,1,2.436.719c.289.111.575.232.854.362a13.956,13.956,0,0,1,2.363,1.389,15,15,0,0,1,1.394,1.15,0,0,0,0,1,0,0c.145.133.288.272.428.412q.468.473.89.982c.1.118.192.239.288.36a15.493,15.493,0,0,1,1.864,3.109c.128.284.25.572.364.868.076.2.149.395.22.6C422.154,397.734,422.188,397.836,422.221,397.938Z" transform="translate(-390.611 -387.276)" fill="#fff"/>
      <path id="Tracé_1055" data-name="Tracé 1055" d="M558.872,556.367c0-.115.054-1.819.062-2.817a25.8,25.8,0,0,0,3.856-3.376,31.277,31.277,0,0,1-4.151,2.5c-.642-.653-.985-1.037-1.658-1.834a.467.467,0,0,1,.357-.727,30.458,30.458,0,0,0,7.053-1.959c.311-.109.5.423.293.816-1.41,2.722-2.878,5.563-5.106,7.7A.419.419,0,0,1,558.872,556.367Z" transform="translate(-532.741 -524.888)" fill="#fff"/>
    </g>
    <g id="Groupe_369" data-name="Groupe 369" transform="translate(474.539 423.27)">
      <g id="Groupe_368" data-name="Groupe 368" transform="translate(0 0)">
        <path id="Tracé_1056" data-name="Tracé 1056" d="M976.531,654.071l1.344-6.778h.339l-.732,3.693h.026l-.612,3.085Zm2.395-1.955a1.43,1.43,0,0,1-.99-.33,1.59,1.59,0,0,1-.485-.893,3.173,3.173,0,0,1,.022-1.262,3.852,3.852,0,0,1,.482-1.271,2.622,2.622,0,0,1,.854-.878,2.167,2.167,0,0,1,1.169-.319,1.476,1.476,0,0,1,1.006.328,1.573,1.573,0,0,1,.5.888,3.1,3.1,0,0,1-.018,1.251,3.8,3.8,0,0,1-.486,1.266,2.715,2.715,0,0,1-.865.891A2.168,2.168,0,0,1,978.926,652.116Zm.072-.365a1.716,1.716,0,0,0,.965-.278,2.256,2.256,0,0,0,.7-.758,3.439,3.439,0,0,0,.4-1.084,2.889,2.889,0,0,0,.033-1.075,1.161,1.161,0,0,0-1.267-1.027,1.777,1.777,0,0,0-.972.269,2.19,2.19,0,0,0-.708.745,3.405,3.405,0,0,0-.4,1.088,2.837,2.837,0,0,0-.028,1.084,1.3,1.3,0,0,0,.408.758A1.27,1.27,0,0,0,979,651.751Z" transform="translate(-976.531 -645.599)" fill="#fff"/>
        <path id="Tracé_1057" data-name="Tracé 1057" d="M1017.216,652.116a1.7,1.7,0,0,1-.87-.191.976.976,0,0,1-.439-.5,1.227,1.227,0,0,1-.044-.678,1.462,1.462,0,0,1,.316-.684,1.716,1.716,0,0,1,.556-.428,2.771,2.771,0,0,1,.671-.226q.425-.082.9-.146t.883-.106q.4-.043.6-.07l-.147.087a1.72,1.72,0,0,0-.057-1.236q-.243-.406-1.06-.406a1.685,1.685,0,0,0-1.663,1.069l-.379-.1a2.125,2.125,0,0,1,.837-.991,2.423,2.423,0,0,1,1.295-.339,1.785,1.785,0,0,1,1.034.265,1.023,1.023,0,0,1,.449.717,1.765,1.765,0,0,1,0,.421,4.735,4.735,0,0,1-.07.482l-.582,2.937h-.339l.255-1.286.172.009a2.349,2.349,0,0,1-.949,1.038A2.681,2.681,0,0,1,1017.216,652.116Zm.055-.365a2.341,2.341,0,0,0,.933-.182,2.075,2.075,0,0,0,.734-.528,2.325,2.325,0,0,0,.47-.828,4.056,4.056,0,0,0,.138-.521l.079-.4.162.148-.648.059q-.414.037-.877.1a7.964,7.964,0,0,0-.846.15,2.537,2.537,0,0,0-.472.165,1.417,1.417,0,0,0-.443.317,1.031,1.031,0,0,0-.259.526.945.945,0,0,0,.023.456.7.7,0,0,0,.3.387A1.279,1.279,0,0,0,1017.271,651.751Z" transform="translate(-1010.156 -645.599)" fill="#fff"/>
        <path id="Tracé_1058" data-name="Tracé 1058" d="M1050.819,652.444l.93-4.692h.339l-.222,1.121-.084-.148a2.282,2.282,0,0,1,.257-.356,2.335,2.335,0,0,1,.275-.269,1.658,1.658,0,0,1,.51-.285,2.037,2.037,0,0,1,.55-.113,1.217,1.217,0,0,1,.459.05l-.069.348a1.742,1.742,0,0,0-.612-.024,1.367,1.367,0,0,0-.668.3,1.7,1.7,0,0,0-.455.53,2.84,2.84,0,0,0-.246.619q-.085.319-.142.606l-.458,2.311Z" transform="translate(-1040.083 -646.058)" fill="#fff"/>
        <path id="Tracé_1059" data-name="Tracé 1059" d="M1091.819,643.629a2.233,2.233,0,0,1-1.176-.291,1.61,1.61,0,0,1-.685-.819,2.208,2.208,0,0,1-.063-1.236l.8-4.04h.365l-.777,3.919a2.126,2.126,0,0,0,0,.984,1.432,1.432,0,0,0,.374.656,1.6,1.6,0,0,0,.588.365,1.938,1.938,0,0,0,.642.115,2.361,2.361,0,0,0,.688-.115,2.635,2.635,0,0,0,.733-.365,2.5,2.5,0,0,0,.634-.656,2.644,2.644,0,0,0,.391-.984l.777-3.919h.365l-.8,4.04a2.878,2.878,0,0,1-2.855,2.346Z" transform="translate(-1073.463 -637.113)" fill="#fff"/>
        <path id="Tracé_1060" data-name="Tracé 1060" d="M1130.783,643.5l1.24-6.256h2.372a1.6,1.6,0,0,1,.8.193,1.179,1.179,0,0,1,.505.541,1.279,1.279,0,0,1,.071.8,1.92,1.92,0,0,1-.467.91,2.012,2.012,0,0,1-.872.584l.024-.209a1.63,1.63,0,0,1,.87.641,1.443,1.443,0,0,1,.156,1.106,1.978,1.978,0,0,1-.424.91,2.111,2.111,0,0,1-.772.576,2.365,2.365,0,0,1-.963.2Zm.437-.365h2a2.319,2.319,0,0,0,.845-.152,1.755,1.755,0,0,0,.66-.439,1.392,1.392,0,0,0,.348-.7,1.316,1.316,0,0,0-.046-.741,1.116,1.116,0,0,0-.412-.53,1.154,1.154,0,0,0-.676-.2h-2.172Zm.617-3.111h2.007a1.458,1.458,0,0,0,.679-.169,1.729,1.729,0,0,0,.557-.456,1.469,1.469,0,0,0,.3-.643.884.884,0,0,0-.205-.839,1.133,1.133,0,0,0-.852-.317h-2.007Z" transform="translate(-1108.491 -637.113)" fill="#fff"/>
        <path id="Tracé_1061" data-name="Tracé 1061" d="M1172.473,642.858a2.357,2.357,0,0,1-1.475-.417,1.944,1.944,0,0,1-.708-1.151,4.062,4.062,0,0,1,.022-1.69,5,5,0,0,1,.648-1.69,3.4,3.4,0,0,1,1.165-1.151,3.164,3.164,0,0,1,1.64-.417,2.2,2.2,0,0,1,1.651.571,2.256,2.256,0,0,1,.6,1.523l-.4.087a1.99,1.99,0,0,0-.518-1.323,1.865,1.865,0,0,0-1.408-.493,2.651,2.651,0,0,0-1.409.369,3.006,3.006,0,0,0-1,1.023,4.7,4.7,0,0,0-.576,1.5,3.628,3.628,0,0,0-.036,1.5,1.72,1.72,0,0,0,.608,1.023,1.987,1.987,0,0,0,1.271.371,2.621,2.621,0,0,0,1.6-.5,3.282,3.282,0,0,0,1.042-1.321l.365.087a3.708,3.708,0,0,1-1.205,1.523A3.1,3.1,0,0,1,1172.473,642.858Z" transform="translate(-1142.222 -636.341)" fill="#fff"/>
        <path id="Tracé_1062" data-name="Tracé 1062" d="M1213.815,643.5l1.24-6.256h.365l-1.24,6.256Z" transform="translate(-1179.523 -637.113)" fill="#fff"/>
      </g>
    </g>
  </g>
</svg>
