<svg xmlns="http://www.w3.org/2000/svg" xmlns:xlink="http://www.w3.org/1999/xlink" width="146.491" height="39.52" viewBox="0 0 146.491 39.52">
  <defs>
    <linearGradient id="linear-gradient" x1="0.485" y1="0.455" x2="0.169" y2="1.332" gradientUnits="objectBoundingBox">
      <stop offset="0" stop-opacity="0"/>
      <stop offset="1" stop-opacity="0.302"/>
    </linearGradient>
  </defs>
  <g id="Groupe_371" data-name="Groupe 371" transform="translate(-389.737 -387.276)">
    <path id="Tracé_1045" data-name="Tracé 1045" d="M642.607,484.3v4.244a4.7,4.7,0,0,0-1.745-.157,5.014,5.014,0,0,0-1.8.458,4.017,4.017,0,0,0-2.19,2.414,5.771,5.771,0,0,0-.284,1.865v9.224h-4.578V488.309a4.011,4.011,0,0,1,4.011-4.011h0V487.2a6.418,6.418,0,0,1,.5-.766,4.894,4.894,0,0,1,1.435-1.269,5.751,5.751,0,0,1,1.422-.626,7.534,7.534,0,0,1,1.588-.286A8.549,8.549,0,0,1,642.607,484.3Z" transform="translate(-211.159 -84.506)" fill="#00975f"/>
    <path id="Tracé_1046" data-name="Tracé 1046" d="M743.964,489.18a12.524,12.524,0,0,0-1.959-5.393,7.858,7.858,0,0,0-3.724-2.985,8.465,8.465,0,0,0-5.007-.193,9.15,9.15,0,0,0-4.326,2.266,8.5,8.5,0,0,0-2.357,4.049,10.756,10.756,0,0,0,.041,5.279,9.542,9.542,0,0,0,2.266,4.4,8.614,8.614,0,0,0,3.975,2.444,9.766,9.766,0,0,0,5.031.042,8.922,8.922,0,0,0,4.362-2.436,8.014,8.014,0,0,0,2.249-4.481l-1.245-.059a5.943,5.943,0,0,0-4.491,1.8l-.016.016a4.285,4.285,0,0,1-2.093,1.094,3.862,3.862,0,0,1-3.448-.6,5.269,5.269,0,0,1-1.593-2.329Zm-12.992-.406a5.046,5.046,0,0,1,.4-2.214,4.051,4.051,0,0,1,3-2.157,3.3,3.3,0,0,1,3.067.521,4.943,4.943,0,0,1,1.273,2.026Z" transform="translate(-293.318 -81.098)" fill="#00975f"/>
    <path id="Tracé_1047" data-name="Tracé 1047" d="M897.219,437.892v6.6a7.364,7.364,0,0,0-4.076-1.086,8.17,8.17,0,0,0-4.513,1.237,8.334,8.334,0,0,0-2.984,3.385,11.858,11.858,0,0,0-.015,9.767,8.407,8.407,0,0,0,2.916,3.409,8.441,8.441,0,0,0,8.855,0q.2-.138.386-.288v1.04h0a4.009,4.009,0,0,0,4.009-4.009V437.892Zm.168,17.915a3.8,3.8,0,0,1-1.313,1.921,3.954,3.954,0,0,1-2.432.685,3.788,3.788,0,0,1-2.406-.735,4.333,4.333,0,0,1-1.387-1.98,8.067,8.067,0,0,1-.451-2.766,7.769,7.769,0,0,1,.469-2.75,4.356,4.356,0,0,1,1.446-1.987,3.994,3.994,0,0,1,2.5-.744,3.627,3.627,0,0,1,2.3.685,3.879,3.879,0,0,1,1.278,1.921,10.5,10.5,0,0,1,0,5.749Z" transform="translate(-431.291 -44.115)" fill="#00975f"/>
    <path id="Tracé_1048" data-name="Tracé 1048" d="M1053.212,401.544h-8.1l-7.15,23.4a4.137,4.137,0,0,0,3.956,5.346h0l1.818-5.986h10.824l1.847,5.986h5.588Zm-7.935,17.683,3.829-12.6,3.887,12.6Z" transform="translate(-564.805 -12.435)" fill="#00975f"/>
    <path id="Tracé_1049" data-name="Tracé 1049" d="M1262.2,485.441a8.328,8.328,0,0,0-2.981-3.385,8.175,8.175,0,0,0-4.513-1.237,7.249,7.249,0,0,0-4.327,1.254c-.109.076-.214.157-.318.242v-.995h-4.011v21.49a4.58,4.58,0,0,0,4.58,4.58h0v-8.65a7.814,7.814,0,0,0,4.31,1.13,7.657,7.657,0,0,0,4.362-1.254,8.425,8.425,0,0,0,2.916-3.409,11.016,11.016,0,0,0,1.045-4.862A10.906,10.906,0,0,0,1262.2,485.441Zm-4.2,7.671a4.334,4.334,0,0,1-1.387,1.98,3.785,3.785,0,0,1-2.406.735,3.958,3.958,0,0,1-2.432-.685,3.8,3.8,0,0,1-1.311-1.921,10.5,10.5,0,0,1,0-5.749,3.877,3.877,0,0,1,1.278-1.921,3.616,3.616,0,0,1,2.3-.685,4,4,0,0,1,2.5.744,4.356,4.356,0,0,1,1.446,1.987,7.768,7.768,0,0,1,.467,2.75A8.065,8.065,0,0,1,1258,493.111Z" transform="translate(-746.329 -81.528)" fill="#00975f"/>
    <path id="Tracé_1050" data-name="Tracé 1050" d="M1412.4,485.441a8.328,8.328,0,0,0-2.982-3.385,8.18,8.18,0,0,0-4.512-1.237,7.261,7.261,0,0,0-4.329,1.254c-.109.076-.214.157-.316.24v-.992h-4.011v21.492a4.578,4.578,0,0,0,4.578,4.578h0v-8.652a7.8,7.8,0,0,0,4.312,1.132,7.657,7.657,0,0,0,4.362-1.254,8.44,8.44,0,0,0,2.916-3.409,11.846,11.846,0,0,0-.017-9.767Zm-4.2,7.671a4.332,4.332,0,0,1-1.387,1.98,3.788,3.788,0,0,1-2.406.735,3.954,3.954,0,0,1-2.432-.685,3.785,3.785,0,0,1-1.311-1.921,10.495,10.495,0,0,1,0-5.749,3.864,3.864,0,0,1,1.278-1.921,3.617,3.617,0,0,1,2.3-.685,4,4,0,0,1,2.5.744,4.372,4.372,0,0,1,1.446,1.987,7.818,7.818,0,0,1,.467,2.75A8.068,8.068,0,0,1,1408.2,493.111Z" transform="translate(-877.237 -81.528)" fill="#00975f"/>
    <path id="Tracé_1051" data-name="Tracé 1051" d="M742.609,422.786a14.07,14.07,0,0,1-2.306,7.567,11.822,11.822,0,0,0,1.32-.836,12.641,12.641,0,0,0,2.867-2.889,13.832,13.832,0,0,0,1.873-3.758A7.656,7.656,0,0,0,742.609,422.786Z" transform="translate(-305.539 -30.781)" fill="#00975f"/>
    <g id="Groupe_367" data-name="Groupe 367" transform="translate(389.737 387.276)">
      <path id="Tracé_1052" data-name="Tracé 1052" d="M411.387,505.864v.013a15.07,15.07,0,0,1-7.147,1.615,15.273,15.273,0,0,1-6.765-1.427c-.334-.162-.659-.336-.976-.527a13.008,13.008,0,0,1-5.007-5.466,18.047,18.047,0,0,1-1.755-8.166,22.034,22.034,0,0,1,.132-2.465A14.752,14.752,0,0,0,400.845,501.6h0a9.37,9.37,0,0,0,3.393.573,10.04,10.04,0,0,0,2.65-.328,7,7,0,0,0,2.217-1.024c.077-.052.152-.108.225-.165a7.488,7.488,0,0,0,.616-.53h0a1.369,1.369,0,0,1-.394,2.1,14.01,14.01,0,0,1-17.223-3.456,14.018,14.018,0,0,0,17.7,6.185A.971.971,0,0,1,411.387,505.864Z" transform="translate(-389.737 -476.32)" fill="#00975f"/>
      <path id="Tracé_1053" data-name="Tracé 1053" d="M418.733,396.762h0l-5.693,1.58v0a9.648,9.648,0,0,0-.594-1.509c-.032-.066-.066-.133-.1-.2-.1-.191-.208-.376-.32-.554a7.4,7.4,0,0,0-1.79-1.966,6.832,6.832,0,0,0-.781-.513,7.334,7.334,0,0,0-1.8-.707c-.217-.054-.442-.1-.671-.142s-.466-.069-.708-.094c-.362-.035-.739-.052-1.128-.052a9.377,9.377,0,0,0-3.469.6,6.909,6.909,0,0,0-1.279.668,7.571,7.571,0,0,0-.89.7s0,0,0,0a7.574,7.574,0,0,0-.773.828c-.06.075-.119.151-.175.229-.169.231-.329.473-.48.728a9.058,9.058,0,0,0-.536,1.089,15.839,15.839,0,0,0,0,10.848,8.164,8.164,0,0,0,1.564,2.479c.065.068.129.135.2.2a7.224,7.224,0,0,0,.861.731c.077.055.156.111.234.163q.157.1.319.2a6.825,6.825,0,0,0,.677.348c.117.052.236.1.357.148a14.751,14.751,0,0,1-10.976-12.157V400.4q.065-.591.163-1.159a16.248,16.248,0,0,1,1.46-4.537,13.359,13.359,0,0,1,2.779-3.781q.335-.317.7-.61a13.1,13.1,0,0,1,1.532-1.073l.211-.125q.531-.3,1.095-.559a13.666,13.666,0,0,1,2.38-.811c.236-.058.474-.109.716-.157.4-.077.818-.14,1.239-.188s.853-.08,1.295-.1h0c.265-.009.533-.015.8-.015q.321,0,.637.009.474.016.932.052c.2.015.406.035.607.06s.4.051.593.08q.439.067.864.157a14,14,0,0,1,2.165.639c.257.1.511.208.759.322a12.3,12.3,0,0,1,2.1,1.236,13.3,13.3,0,0,1,1.239,1.021,0,0,0,0,1,0,0c.129.12.256.242.38.366q.416.42.791.873c.086.1.172.211.256.32a13.7,13.7,0,0,1,1.657,2.764c.114.253.222.508.323.771.068.174.134.351.2.531C418.674,396.58,418.7,396.671,418.733,396.762Z" transform="translate(-390.638 -387.286)" fill="#00975f"/>
      <path id="Tracé_1054" data-name="Tracé 1054" d="M418.721,396.752l-5.693,1.578a9.651,9.651,0,0,0-.594-1.509c-.032-.066-.068-.133-.1-.2q-.15-.287-.319-.554a7.4,7.4,0,0,0-1.79-1.966,6.829,6.829,0,0,0-.781-.513,7.334,7.334,0,0,0-1.8-.707c-.217-.055-.442-.1-.671-.142s-.466-.071-.708-.094c-.362-.035-.739-.054-1.128-.054a9.342,9.342,0,0,0-3.469.6,6.908,6.908,0,0,0-1.279.668,7.263,7.263,0,0,0-.89.7s0,0,0,0a7.168,7.168,0,0,0-.773.828c-.06.075-.119.151-.175.229a7.891,7.891,0,0,0-.48.728,9.058,9.058,0,0,0-.536,1.089,15.839,15.839,0,0,0,0,10.848,8.165,8.165,0,0,0,1.564,2.479c.065.069.131.137.2.2a7.224,7.224,0,0,0,.861.731c.077.055.156.109.234.162.1.069.211.135.319.2a7.2,7.2,0,0,0,.677.348c.117.052.236.1.357.148A14.751,14.751,0,0,1,390.761,400.4a.009.009,0,0,1,0-.006q.065-.591.165-1.159a16.249,16.249,0,0,1,1.46-4.537,13.359,13.359,0,0,1,2.779-3.781c.223-.211.456-.416.7-.61a13.112,13.112,0,0,1,1.532-1.075c.069-.042.14-.083.211-.123q.531-.3,1.095-.559a13.553,13.553,0,0,1,2.38-.813c.236-.057.474-.109.716-.155.4-.077.818-.14,1.239-.188s.854-.082,1.295-.1h0q.4-.016.8-.017c.214,0,.426,0,.637.011q.474.014.932.052c.2.015.406.035.607.06s.4.049.593.08q.439.067.864.157a13.829,13.829,0,0,1,2.165.639c.257.1.511.206.759.322a12.4,12.4,0,0,1,2.1,1.235,13.332,13.332,0,0,1,1.239,1.022,0,0,0,0,1,0,0c.129.119.256.242.38.366q.416.42.791.873c.086.1.171.212.256.32a13.769,13.769,0,0,1,1.656,2.764c.114.253.222.508.323.771.068.174.132.351.2.531C418.661,396.571,418.692,396.661,418.721,396.752Z" transform="translate(-390.628 -387.276)" fill="url(#linear-gradient)"/>
      <path id="Tracé_1055" data-name="Tracé 1055" d="M558.653,555.451c0-.1.048-1.616.055-2.5a22.92,22.92,0,0,0,3.427-3,27.8,27.8,0,0,1-3.689,2.218c-.571-.58-.875-.922-1.474-1.63a.415.415,0,0,1,.317-.646,27.068,27.068,0,0,0,6.268-1.741c.277-.1.441.376.26.725a25.359,25.359,0,0,1-4.538,6.845A.373.373,0,0,1,558.653,555.451Z" transform="translate(-535.428 -527.474)" fill="#00975f"/>
    </g>
    <g id="Groupe_369" data-name="Groupe 369" transform="translate(465.106 419.266)">
      <g id="Groupe_368" data-name="Groupe 368" transform="translate(0 0)">
        <path id="Tracé_1056" data-name="Tracé 1056" d="M976.531,653.3l1.194-6.024h.3l-.651,3.282h.023l-.543,2.742Zm2.128-1.738a1.271,1.271,0,0,1-.88-.293,1.413,1.413,0,0,1-.431-.794,2.82,2.82,0,0,1,.02-1.122,3.422,3.422,0,0,1,.428-1.129,2.331,2.331,0,0,1,.759-.78,1.925,1.925,0,0,1,1.039-.284,1.312,1.312,0,0,1,.894.292,1.4,1.4,0,0,1,.44.79,2.757,2.757,0,0,1-.016,1.112,3.382,3.382,0,0,1-.432,1.125,2.413,2.413,0,0,1-.769.792A1.927,1.927,0,0,1,978.659,651.565Zm.064-.324a1.525,1.525,0,0,0,.858-.247,2.005,2.005,0,0,0,.626-.674,3.058,3.058,0,0,0,.357-.963,2.571,2.571,0,0,0,.029-.956,1.032,1.032,0,0,0-1.126-.913,1.58,1.58,0,0,0-.864.239,1.946,1.946,0,0,0-.63.662,3.025,3.025,0,0,0-.36.967,2.522,2.522,0,0,0-.025.963,1.152,1.152,0,0,0,.363.674A1.129,1.129,0,0,0,978.724,651.241Z" transform="translate(-976.531 -645.773)"/>
        <path id="Tracé_1057" data-name="Tracé 1057" d="M1017.063,651.565a1.514,1.514,0,0,1-.773-.17.867.867,0,0,1-.39-.448,1.089,1.089,0,0,1-.039-.6,1.3,1.3,0,0,1,.281-.608,1.526,1.526,0,0,1,.494-.38,2.463,2.463,0,0,1,.6-.2q.377-.073.8-.129t.785-.095q.359-.039.537-.062l-.131.077a1.53,1.53,0,0,0-.05-1.1q-.216-.361-.942-.361a1.5,1.5,0,0,0-1.478.95l-.337-.093a1.889,1.889,0,0,1,.744-.88,2.153,2.153,0,0,1,1.151-.3,1.587,1.587,0,0,1,.919.236.909.909,0,0,1,.4.637,1.572,1.572,0,0,1,0,.374,4.217,4.217,0,0,1-.062.429l-.518,2.61h-.3l.227-1.143.153.008a2.088,2.088,0,0,1-.843.923A2.382,2.382,0,0,1,1017.063,651.565Zm.049-.324a2.081,2.081,0,0,0,.83-.162,1.843,1.843,0,0,0,.653-.469,2.066,2.066,0,0,0,.418-.736,3.6,3.6,0,0,0,.123-.463l.07-.355.144.131-.576.052q-.368.033-.78.085a7.085,7.085,0,0,0-.752.133,2.251,2.251,0,0,0-.419.147,1.259,1.259,0,0,0-.394.282.917.917,0,0,0-.23.467.841.841,0,0,0,.02.406.619.619,0,0,0,.27.344A1.137,1.137,0,0,0,1017.112,651.241Z" transform="translate(-1010.787 -645.773)"/>
        <path id="Tracé_1058" data-name="Tracé 1058" d="M1050.819,651.917l.827-4.17h.3l-.2,1-.074-.131a2.036,2.036,0,0,1,.229-.317,2.078,2.078,0,0,1,.244-.239,1.473,1.473,0,0,1,.454-.253,1.812,1.812,0,0,1,.489-.1,1.082,1.082,0,0,1,.408.044l-.061.309a1.549,1.549,0,0,0-.544-.021,1.214,1.214,0,0,0-.594.268,1.506,1.506,0,0,0-.4.471,2.527,2.527,0,0,0-.219.55q-.076.284-.126.539l-.407,2.054Z" transform="translate(-1041.277 -646.241)"/>
        <path id="Tracé_1059" data-name="Tracé 1059" d="M1091.6,642.919a1.985,1.985,0,0,1-1.045-.259,1.431,1.431,0,0,1-.609-.728,1.962,1.962,0,0,1-.056-1.1l.712-3.591h.324l-.691,3.483a1.889,1.889,0,0,0,0,.875,1.273,1.273,0,0,0,.332.583,1.421,1.421,0,0,0,.523.324,1.721,1.721,0,0,0,.57.1,2.1,2.1,0,0,0,.611-.1,2.339,2.339,0,0,0,.651-.324,2.223,2.223,0,0,0,.563-.583,2.352,2.352,0,0,0,.347-.875l.691-3.483h.324l-.712,3.591a2.558,2.558,0,0,1-2.537,2.085Z" transform="translate(-1075.284 -637.127)"/>
        <path id="Tracé_1060" data-name="Tracé 1060" d="M1130.783,642.8l1.1-5.56h2.108a1.42,1.42,0,0,1,.707.172,1.047,1.047,0,0,1,.449.481,1.137,1.137,0,0,1,.063.714,1.706,1.706,0,0,1-.415.809,1.788,1.788,0,0,1-.775.519l.021-.185a1.449,1.449,0,0,1,.773.57,1.283,1.283,0,0,1,.139.983,1.758,1.758,0,0,1-.377.809,1.876,1.876,0,0,1-.686.512,2.1,2.1,0,0,1-.856.178Zm.389-.324h1.776a2.061,2.061,0,0,0,.751-.135,1.56,1.56,0,0,0,.587-.39,1.237,1.237,0,0,0,.31-.618,1.171,1.171,0,0,0-.041-.658.992.992,0,0,0-.366-.471,1.026,1.026,0,0,0-.6-.176h-1.931Zm.548-2.765h1.784a1.3,1.3,0,0,0,.6-.151,1.536,1.536,0,0,0,.5-.405,1.305,1.305,0,0,0,.268-.571.786.786,0,0,0-.182-.745,1.007,1.007,0,0,0-.757-.282h-1.784Z" transform="translate(-1110.971 -637.127)"/>
        <path id="Tracé_1061" data-name="Tracé 1061" d="M1172.222,642.133a2.1,2.1,0,0,1-1.311-.371,1.729,1.729,0,0,1-.629-1.023,3.611,3.611,0,0,1,.02-1.5,4.439,4.439,0,0,1,.576-1.5,3.025,3.025,0,0,1,1.035-1.023,2.812,2.812,0,0,1,1.458-.371,1.958,1.958,0,0,1,1.467.508,2.005,2.005,0,0,1,.535,1.353l-.355.077a1.769,1.769,0,0,0-.46-1.176,1.658,1.658,0,0,0-1.251-.438,2.356,2.356,0,0,0-1.252.328,2.672,2.672,0,0,0-.893.909,4.177,4.177,0,0,0-.512,1.334,3.224,3.224,0,0,0-.032,1.332,1.529,1.529,0,0,0,.54.909,1.767,1.767,0,0,0,1.13.33,2.329,2.329,0,0,0,1.425-.44,2.917,2.917,0,0,0,.926-1.174l.325.077a3.3,3.3,0,0,1-1.071,1.353A2.752,2.752,0,0,1,1172.222,642.133Z" transform="translate(-1145.335 -636.341)"/>
        <path id="Tracé_1062" data-name="Tracé 1062" d="M1213.815,642.8l1.1-5.56h.324l-1.1,5.56Z" transform="translate(-1183.338 -637.127)"/>
      </g>
    </g>
  </g>
</svg>
