<svg xmlns="http://www.w3.org/2000/svg" width="85.237" height="107.839" viewBox="0 0 85.237 107.839">
  <g id="passez" transform="translate(-881.828 -1917.475)">
    <g id="Groupe_114" data-name="Groupe 114" transform="translate(881.828 1917.475)">
      <path id="Tracé_1000" data-name="Tracé 1000" d="M596.527,98.951H539.242a12.081,12.081,0,0,0-12.081,12.081v70.316a12.08,12.08,0,0,0,12.081,12.081h19.2c-.008-.134-.012-.272-.012-.406a6.623,6.623,0,0,1,1.953-4.715l2.539-2.539H539.242a4.427,4.427,0,0,1-4.42-4.42V111.032a4.427,4.427,0,0,1,4.42-4.421h57.285a4.427,4.427,0,0,1,4.42,4.421v43.784l5.619-2.433a8.47,8.47,0,0,1,2.042-.6V111.032A12.081,12.081,0,0,0,596.527,98.951Z" transform="translate(-527.161 -98.951)" fill="rgba(0,0,0,0.54)"/>
      <rect id="Rectangle_393" data-name="Rectangle 393" width="52.126" height="7.059" rx="3.529" transform="translate(14.66 17.103)" fill="rgba(0,0,0,0.54)"/>
      <rect id="Rectangle_394" data-name="Rectangle 394" width="52.126" height="7.059" rx="3.529" transform="translate(14.66 30.406)" fill="rgba(0,0,0,0.54)"/>
      <rect id="Rectangle_395" data-name="Rectangle 395" width="52.126" height="7.059" rx="3.529" transform="translate(14.66 43.709)" fill="rgba(0,0,0,0.54)"/>
      <path id="Tracé_1001" data-name="Tracé 1001" d="M617.492,249.713l-11.882,5.144H567.9a2.468,2.468,0,0,1-2.471-2.466v-2.122A2.468,2.468,0,0,1,567.9,247.8H615.09A2.461,2.461,0,0,1,617.492,249.713Z" transform="translate(-550.773 -190.788)" fill="rgba(0,0,0,0.54)"/>
      <path id="Tracé_1002" data-name="Tracé 1002" d="M591.178,282.532l-2.007.869a8.216,8.216,0,0,0-4.861,6.185H567.9a2.468,2.468,0,0,1-2.471-2.466V285a2.468,2.468,0,0,1,2.471-2.466Z" transform="translate(-550.773 -212.216)" fill="rgba(0,0,0,0.54)"/>
      <g id="Groupe_113" data-name="Groupe 113" transform="translate(37.171 58.634)">
        <path id="Tracé_1003" data-name="Tracé 1003" d="M661.762,356.284a.759.759,0,0,1-.222.54L653.5,364.86a.766.766,0,0,1-1.084-1.084l8.036-8.036A.767.767,0,0,1,661.762,356.284Z" transform="translate(-641.475 -315.879)" fill="#00975f"/>
        <path id="Tracé_1004" data-name="Tracé 1004" d="M632.623,325.341a.763.763,0,0,1-.226.54l-6.749,6.753-.138.138a.762.762,0,0,1-1.08,0,.75.75,0,0,1-.111-.138.773.773,0,0,1,.111-.946l6.714-6.714.172-.173a.763.763,0,0,1,1.306.54Z" transform="translate(-624.207 -296.79)" fill="#00975f"/>
        <path id="Tracé_1005" data-name="Tracé 1005" d="M675.519,255.518c-.709,1.639-2,4.619-3.578,8.261-3.083,7.125-7.266,16.788-10.38,23.978-1.708,3.941-3.091,7.135-3.8,8.763a2.372,2.372,0,0,1-4.259.192c-.18-.414-2.111-4.8-3.888-8.836-.693-1.578-1.364-3.106-1.9-4.317l2.766-3.344,13.793-16.685.23-.28-.23.192-7.3,6.028,0,0v0l-1.425,1.176-.008,0-11.341,9.381-13.157-5.784a2.366,2.366,0,0,1,.192-4.26l14.513-6.281,18.527-8.021,7.661-3.313.306-.134A2.486,2.486,0,0,1,675.519,255.518Z" transform="translate(-627.666 -252.033)" fill="#00975f"/>
        <path id="Tracé_1006" data-name="Tracé 1006" d="M661.762,356.284a.759.759,0,0,1-.222.54L653.5,364.86a.766.766,0,0,1-1.084-1.084l8.036-8.036A.767.767,0,0,1,661.762,356.284Z" transform="translate(-641.475 -315.879)" fill="#00975f"/>
        <path id="Tracé_1007" data-name="Tracé 1007" d="M654.755,334.726l-3.363,3.363-2.762,2.762a.765.765,0,0,1-1.08-1.084l6.121-6.121a.765.765,0,0,1,1.084,1.08Z" transform="translate(-638.471 -302.246)" fill="#00975f"/>
      </g>
    </g>
  </g>
</svg>
