<svg xmlns="http://www.w3.org/2000/svg" width="60.792" height="44.846" viewBox="0 0 60.792 44.846">
  <g id="Groupe_315" data-name="Groupe 315" style="isolation: isolate">
    <g id="Groupe_71" data-name="Groupe 71">
      <path id="Icon_awesome-user" data-name="Icon awesome-user" d="M1482.845,311.76a9.393,9.393,0,1,0-7.9,14.474,9.194,9.194,0,0,0,1.732-.161,12.64,12.64,0,0,1,6.17-14.313Zm-4.775,17.607a12.781,12.781,0,0,1-8.477-.787h-1.225a9.867,9.867,0,0,0-9.861,9.864V341.5a3.526,3.526,0,0,0,3.524,3.524h6.875a13.158,13.158,0,0,1,11.681-12.649A12.709,12.709,0,0,1,1478.07,329.368Zm10.834,2.542a9.43,9.43,0,0,0-.594.739c.2.014.393.02.594.02s.4-.006.592-.02C1489.309,332.391,1489.111,332.144,1488.9,331.909Z" transform="translate(-1458.507 -307.45)" fill="#fff"/>
      <path id="Icon_awesome-user-2" data-name="Icon awesome-user" d="M1578.36,307.45a9.376,9.376,0,0,0-7.9,4.313,12.64,12.64,0,0,1,6.167,14.31,9.191,9.191,0,0,0,1.732.161,9.392,9.392,0,0,0,0-18.785ZM1564.4,331.909a9.4,9.4,0,0,0-.594.739c.2.014.393.02.594.02s.4-.006.592-.02C1564.806,332.391,1564.608,332.144,1564.4,331.909Zm20.534-3.328h-1.225a12.788,12.788,0,0,1-8.474.787,12.648,12.648,0,0,1-2.519,3,13.163,13.163,0,0,1,11.683,12.649h6.875a3.525,3.525,0,0,0,3.521-3.524v-3.051A9.866,9.866,0,0,0,1584.935,328.581Z" transform="translate(-1534.004 -307.45)" fill="#fff"/>
    </g>
    <path id="Tracé_99" data-name="Tracé 99" d="M1564.993,394.609c-.2.014-.393.02-.592.02s-.4-.006-.594-.02a9.4,9.4,0,0,1,.594-.739C1564.608,394.1,1564.806,394.351,1564.993,394.609Z" transform="translate(-1534.004 -369.411)" fill="#fff"/>
    <path id="Icon_awesome-user-3" data-name="Icon awesome-user" d="M1564.4,393.87a9.4,9.4,0,0,0-.594.739c.2.014.393.02.594.02s.4-.006.592-.02C1564.806,394.351,1564.608,394.1,1564.4,393.87Z" transform="translate(-1534.004 -369.411)" fill="#fff"/>
    <path id="Tracé_100" data-name="Tracé 100" d="M1539.575,415.525v3.19a3.683,3.683,0,0,1-3.682,3.679h-26.987a3.679,3.679,0,0,1-3.679-3.679v-3.19q0-.2.008-.408a10.309,10.309,0,0,1,10.294-9.9h1.282a13.3,13.3,0,0,0,7.8,1.042,13.277,13.277,0,0,0,3.377-1.042h1.282a10.313,10.313,0,0,1,10.3,9.9Q1539.575,415.321,1539.575,415.525Z" transform="translate(-1492.004 -377.548)" fill="#fff"/>
    <path id="Tracé_101" data-name="Tracé 101" d="M1550.855,337.023a9.9,9.9,0,0,1-.266,2.278,9.812,9.812,0,0,1-8.955,7.514c-.187-.258-.385-.5-.592-.739a9.426,9.426,0,0,0-.594.739,9.823,9.823,0,0,1-8.955-7.514,9.825,9.825,0,0,1,4.647-10.781,9.813,9.813,0,0,1,14.715,8.5Z" transform="translate(-1510.645 -321.617)" fill="#fff"/>
  </g>
</svg>
