<svg xmlns="http://www.w3.org/2000/svg" xmlns:xlink="http://www.w3.org/1999/xlink" width="151.216" height="40.795" viewBox="0 0 151.216 40.795">
  <defs>
    <linearGradient id="linear-gradient" x1="0.485" y1="0.455" x2="0.169" y2="1.332" gradientUnits="objectBoundingBox">
      <stop offset="0" stop-opacity="0"/>
      <stop offset="1" stop-opacity="0.302"/>
    </linearGradient>
  </defs>
  <g id="Groupe_370" data-name="Groupe 370" transform="translate(-568.018 127.916)">
    <path id="Tracé_1045" data-name="Tracé 1045" d="M642.949,484.3v4.381a4.85,4.85,0,0,0-1.8-.162,5.175,5.175,0,0,0-1.855.473,4.147,4.147,0,0,0-2.26,2.492,5.957,5.957,0,0,0-.293,1.925v9.521h-4.726V488.44a4.14,4.14,0,0,1,4.14-4.14h0v3a6.63,6.63,0,0,1,.518-.79,5.051,5.051,0,0,1,1.481-1.31,5.935,5.935,0,0,1,1.468-.646,7.778,7.778,0,0,1,1.639-.295A8.827,8.827,0,0,1,642.949,484.3Z" transform="translate(-31.874 -599.296)" fill="#fff"/>
    <path id="Tracé_1046" data-name="Tracé 1046" d="M744.535,489.466a12.928,12.928,0,0,0-2.022-5.567,8.111,8.111,0,0,0-3.844-3.082,8.738,8.738,0,0,0-5.168-.2,9.445,9.445,0,0,0-4.466,2.339,8.774,8.774,0,0,0-2.433,4.18,11.1,11.1,0,0,0,.042,5.449,9.85,9.85,0,0,0,2.339,4.544,8.891,8.891,0,0,0,4.1,2.523,10.08,10.08,0,0,0,5.194.043,9.21,9.21,0,0,0,4.5-2.514,8.273,8.273,0,0,0,2.322-4.625l-1.285-.061a6.135,6.135,0,0,0-4.635,1.854l-.016.016a4.423,4.423,0,0,1-2.16,1.129,3.986,3.986,0,0,1-3.559-.623,5.44,5.44,0,0,1-1.645-2.4Zm-13.411-.419a5.208,5.208,0,0,1,.412-2.285,4.181,4.181,0,0,1,3.1-2.227,3.4,3.4,0,0,1,3.166.537,5.1,5.1,0,0,1,1.314,2.091Z" transform="translate(-113.643 -595.904)" fill="#fff"/>
    <path id="Tracé_1047" data-name="Tracé 1047" d="M897.627,437.892V444.7a7.6,7.6,0,0,0-4.208-1.121,8.434,8.434,0,0,0-4.658,1.277,8.6,8.6,0,0,0-3.08,3.494,12.24,12.24,0,0,0-.016,10.082,8.678,8.678,0,0,0,3.01,3.519,8.713,8.713,0,0,0,9.141,0q.206-.142.4-.3v1.074h0a4.138,4.138,0,0,0,4.138-4.138v-20.7Zm.173,18.493a3.925,3.925,0,0,1-1.355,1.983,4.081,4.081,0,0,1-2.51.707,3.911,3.911,0,0,1-2.483-.759,4.472,4.472,0,0,1-1.432-2.044,8.327,8.327,0,0,1-.466-2.855,8.02,8.02,0,0,1,.484-2.839,4.5,4.5,0,0,1,1.493-2.051,4.123,4.123,0,0,1,2.578-.768,3.744,3.744,0,0,1,2.373.707,4,4,0,0,1,1.319,1.983,10.836,10.836,0,0,1,0,5.935Z" transform="translate(-250.96 -559.097)" fill="#fff"/>
    <path id="Tracé_1048" data-name="Tracé 1048" d="M1053.71,401.544h-8.363l-7.381,24.15a4.271,4.271,0,0,0,4.084,5.519h0l1.877-6.179H1055.1l1.907,6.179h5.768Zm-8.191,18.253,3.953-13,4.012,13Z" transform="translate(-383.839 -527.569)" fill="#fff"/>
    <path id="Tracé_1049" data-name="Tracé 1049" d="M1262.723,485.59a8.6,8.6,0,0,0-3.078-3.494,8.439,8.439,0,0,0-4.658-1.277,7.483,7.483,0,0,0-4.467,1.295c-.113.079-.221.162-.329.25v-1.027h-4.14V503.52a4.728,4.728,0,0,0,4.728,4.728h0v-8.929a8.066,8.066,0,0,0,4.449,1.166,7.9,7.9,0,0,0,4.5-1.295,8.7,8.7,0,0,0,3.01-3.519,12.227,12.227,0,0,0-.018-10.082Zm-4.338,7.918a4.474,4.474,0,0,1-1.432,2.044,3.907,3.907,0,0,1-2.483.759,4.086,4.086,0,0,1-2.51-.707,3.922,3.922,0,0,1-1.353-1.983,10.836,10.836,0,0,1,0-5.935,4,4,0,0,1,1.319-1.983A3.733,3.733,0,0,1,1254.3,485a4.134,4.134,0,0,1,2.58.768,4.5,4.5,0,0,1,1.493,2.051,8.02,8.02,0,0,1,.482,2.839A8.327,8.327,0,0,1,1258.385,493.508Z" transform="translate(-564.5 -596.333)" fill="#fff"/>
    <path id="Tracé_1050" data-name="Tracé 1050" d="M1412.923,485.59a8.6,8.6,0,0,0-3.078-3.494,8.443,8.443,0,0,0-4.658-1.277,7.5,7.5,0,0,0-4.469,1.295c-.113.079-.221.162-.326.248v-1.024h-4.14v22.185a4.726,4.726,0,0,0,4.725,4.726h0v-8.931a8.051,8.051,0,0,0,4.451,1.168,7.9,7.9,0,0,0,4.5-1.295,8.713,8.713,0,0,0,3.01-3.519,12.228,12.228,0,0,0-.018-10.082Zm-4.338,7.918a4.472,4.472,0,0,1-1.432,2.044,3.91,3.91,0,0,1-2.483.759,4.081,4.081,0,0,1-2.51-.707,3.907,3.907,0,0,1-1.353-1.983,10.833,10.833,0,0,1,0-5.935,3.989,3.989,0,0,1,1.319-1.983A3.734,3.734,0,0,1,1404.5,485a4.134,4.134,0,0,1,2.58.768,4.513,4.513,0,0,1,1.493,2.051,8.069,8.069,0,0,1,.482,2.839A8.33,8.33,0,0,1,1408.585,493.508Z" transform="translate(-694.786 -596.333)" fill="#fff"/>
    <path id="Tracé_1051" data-name="Tracé 1051" d="M742.683,422.793a14.523,14.523,0,0,1-2.38,7.811,12.212,12.212,0,0,0,1.362-.863,13.049,13.049,0,0,0,2.96-2.982,14.277,14.277,0,0,0,1.934-3.879A7.9,7.9,0,0,0,742.683,422.793Z" transform="translate(-125.806 -545.827)" fill="#fff"/>
    <path id="Tracé_1052" data-name="Tracé 1052" d="M412.086,506.394v.014a15.556,15.556,0,0,1-7.377,1.667,15.766,15.766,0,0,1-6.983-1.473c-.345-.167-.68-.347-1.008-.544a13.427,13.427,0,0,1-5.168-5.642,18.629,18.629,0,0,1-1.812-8.43,22.74,22.74,0,0,1,.137-2.544,15.227,15.227,0,0,0,11.33,12.549h0a9.673,9.673,0,0,0,3.5.591,10.364,10.364,0,0,0,2.735-.339,7.23,7.23,0,0,0,2.289-1.057c.08-.054.157-.111.232-.17a7.736,7.736,0,0,0,.636-.547h0a1.414,1.414,0,0,1-.406,2.172,14.462,14.462,0,0,1-17.778-3.567,14.47,14.47,0,0,0,18.271,6.384A1,1,0,0,1,412.086,506.394Z" transform="translate(178.281 -603.813)" fill="#fff"/>
    <path id="Tracé_1053" data-name="Tracé 1053" d="M419.635,397.068h0l-5.877,1.63v0a9.963,9.963,0,0,0-.613-1.557c-.033-.068-.068-.137-.1-.2-.105-.2-.215-.388-.331-.572a7.635,7.635,0,0,0-1.848-2.029,7.053,7.053,0,0,0-.806-.529,7.57,7.57,0,0,0-1.861-.729c-.224-.056-.456-.1-.693-.146s-.482-.072-.731-.1c-.373-.037-.763-.054-1.165-.054a9.679,9.679,0,0,0-3.581.618,7.132,7.132,0,0,0-1.321.69,7.815,7.815,0,0,0-.919.722s0,0,0,0a7.821,7.821,0,0,0-.8.855c-.062.078-.122.156-.181.237-.175.238-.34.488-.5.752a9.349,9.349,0,0,0-.553,1.124,16.35,16.35,0,0,0,0,11.2,8.427,8.427,0,0,0,1.615,2.559c.067.07.134.14.2.208a7.457,7.457,0,0,0,.888.755c.079.057.161.114.242.168q.162.107.329.205a7.052,7.052,0,0,0,.7.359c.121.054.243.1.369.153a15.227,15.227,0,0,1-11.33-12.549v-.006q.067-.61.168-1.2a16.772,16.772,0,0,1,1.507-4.684,13.79,13.79,0,0,1,2.869-3.9q.345-.327.718-.629a13.524,13.524,0,0,1,1.581-1.108l.218-.129q.548-.315,1.13-.577a14.1,14.1,0,0,1,2.457-.838c.243-.06.49-.113.739-.162.416-.08.844-.145,1.279-.194s.88-.083,1.336-.1h0c.273-.01.55-.016.83-.016q.331,0,.658.01.489.017.962.054c.211.016.419.036.626.062s.41.052.612.083q.453.069.891.162a14.451,14.451,0,0,1,2.235.66c.265.1.528.215.783.332a12.7,12.7,0,0,1,2.168,1.276,13.728,13.728,0,0,1,1.279,1.054,0,0,0,0,1,0,0c.133.124.264.25.393.378q.429.434.817.9c.089.108.178.218.264.331a14.141,14.141,0,0,1,1.71,2.853c.118.261.229.525.334.8.07.18.138.362.2.548C419.574,396.88,419.605,396.974,419.635,397.068Z" transform="translate(177.384 -515.202)" fill="#fff"/>
    <path id="Tracé_1054" data-name="Tracé 1054" d="M419.623,397.058l-5.877,1.629a9.966,9.966,0,0,0-.613-1.557c-.033-.068-.07-.137-.105-.2q-.155-.3-.329-.572a7.635,7.635,0,0,0-1.848-2.029,7.05,7.05,0,0,0-.806-.529,7.57,7.57,0,0,0-1.861-.729c-.224-.057-.456-.106-.693-.146s-.482-.073-.731-.1c-.373-.037-.763-.056-1.165-.056a9.643,9.643,0,0,0-3.581.62,7.131,7.131,0,0,0-1.321.69,7.5,7.5,0,0,0-.919.722s0,0,0,0a7.4,7.4,0,0,0-.8.855c-.062.078-.122.156-.181.237a8.151,8.151,0,0,0-.5.752,9.349,9.349,0,0,0-.553,1.124,16.35,16.35,0,0,0,0,11.2,8.428,8.428,0,0,0,1.615,2.559c.067.071.135.141.2.208a7.457,7.457,0,0,0,.888.755c.079.057.161.113.242.167.108.071.218.14.329.207a7.43,7.43,0,0,0,.7.359c.121.054.243.1.369.153a15.227,15.227,0,0,1-11.33-12.549.009.009,0,0,1,0-.006q.067-.61.17-1.2a16.774,16.774,0,0,1,1.507-4.684,13.789,13.789,0,0,1,2.869-3.9c.23-.218.47-.429.718-.629a13.532,13.532,0,0,1,1.581-1.109c.072-.043.145-.086.218-.127q.548-.315,1.13-.577a13.99,13.99,0,0,1,2.457-.839c.243-.059.49-.113.739-.16.416-.08.844-.145,1.279-.194s.882-.084,1.336-.1h0q.41-.017.83-.017c.221,0,.44,0,.658.011q.489.014.962.054c.211.016.42.036.626.062s.41.051.612.083q.453.069.892.162a14.275,14.275,0,0,1,2.235.66c.265.1.528.213.783.332a12.8,12.8,0,0,1,2.168,1.275,13.765,13.765,0,0,1,1.279,1.055,0,0,0,0,1,0,0c.133.122.264.25.393.378q.429.434.817.9c.089.108.176.219.264.331a14.213,14.213,0,0,1,1.71,2.853c.118.261.229.525.334.8.07.18.137.362.2.548C419.562,396.87,419.593,396.964,419.623,397.058Z" transform="translate(177.394 -515.192)" fill="url(#linear-gradient)"/>
    <path id="Tracé_1055" data-name="Tracé 1055" d="M558.709,555.687c0-.106.05-1.668.057-2.585a23.655,23.655,0,0,0,3.537-3.1,28.682,28.682,0,0,1-3.808,2.289c-.589-.6-.9-.952-1.521-1.682a.429.429,0,0,1,.328-.667,27.944,27.944,0,0,0,6.47-1.8c.286-.1.456.388.269.749a26.179,26.179,0,0,1-4.685,7.066A.385.385,0,0,1,558.709,555.687Z" transform="translate(33.282 -654.724)" fill="#fff"/>
    <g id="Groupe_369" data-name="Groupe 369" transform="translate(645.818 -94.894)">
      <g id="Groupe_368" data-name="Groupe 368" transform="translate(0 0)">
        <path id="Tracé_1056" data-name="Tracé 1056" d="M976.531,653.5l1.233-6.218h.311l-.672,3.388h.024l-.561,2.83Zm2.2-1.794a1.312,1.312,0,0,1-.908-.3,1.459,1.459,0,0,1-.445-.819,2.912,2.912,0,0,1,.02-1.158,3.534,3.534,0,0,1,.442-1.166,2.406,2.406,0,0,1,.783-.805,1.987,1.987,0,0,1,1.073-.293,1.354,1.354,0,0,1,.923.3,1.444,1.444,0,0,1,.454.815,2.846,2.846,0,0,1-.016,1.148,3.491,3.491,0,0,1-.446,1.162,2.491,2.491,0,0,1-.794.817A1.989,1.989,0,0,1,978.728,651.707Zm.066-.335a1.575,1.575,0,0,0,.886-.255,2.07,2.07,0,0,0,.646-.7,3.156,3.156,0,0,0,.369-.994,2.655,2.655,0,0,0,.03-.987,1.065,1.065,0,0,0-1.162-.943,1.631,1.631,0,0,0-.892.247,2.009,2.009,0,0,0-.65.684,3.122,3.122,0,0,0-.371,1,2.6,2.6,0,0,0-.026.994,1.19,1.19,0,0,0,.374.7A1.165,1.165,0,0,0,978.794,651.372Z" transform="translate(-976.531 -645.728)" fill="#fff"/>
        <path id="Tracé_1057" data-name="Tracé 1057" d="M1017.1,651.707a1.562,1.562,0,0,1-.8-.175.9.9,0,0,1-.4-.462,1.125,1.125,0,0,1-.04-.622,1.342,1.342,0,0,1,.29-.628,1.575,1.575,0,0,1,.51-.393,2.542,2.542,0,0,1,.615-.207q.389-.075.83-.133t.81-.1q.371-.04.555-.064l-.135.08a1.579,1.579,0,0,0-.052-1.134q-.223-.373-.973-.373a1.669,1.669,0,0,0-.919.241,1.686,1.686,0,0,0-.607.739l-.348-.1a1.95,1.95,0,0,1,.768-.909,2.223,2.223,0,0,1,1.188-.311,1.638,1.638,0,0,1,.948.243.938.938,0,0,1,.412.658,1.618,1.618,0,0,1,0,.386,4.359,4.359,0,0,1-.064.442l-.534,2.694h-.311l.234-1.18.158.008a2.155,2.155,0,0,1-.87.952A2.459,2.459,0,0,1,1017.1,651.707Zm.05-.335a2.148,2.148,0,0,0,.856-.167,1.9,1.9,0,0,0,.674-.484,2.132,2.132,0,0,0,.432-.759,3.712,3.712,0,0,0,.127-.478l.073-.367.149.136-.595.054q-.38.034-.8.088a7.317,7.317,0,0,0-.776.138,2.324,2.324,0,0,0-.433.151,1.3,1.3,0,0,0-.406.291.948.948,0,0,0-.237.482.869.869,0,0,0,.021.419.639.639,0,0,0,.278.355A1.173,1.173,0,0,0,1017.153,651.372Z" transform="translate(-1010.625 -645.728)" fill="#fff"/>
        <path id="Tracé_1058" data-name="Tracé 1058" d="M1050.819,652.053l.853-4.3h.311l-.2,1.028-.077-.135a2.1,2.1,0,0,1,.236-.327,2.149,2.149,0,0,1,.252-.247,1.522,1.522,0,0,1,.468-.261,1.872,1.872,0,0,1,.5-.1,1.117,1.117,0,0,1,.421.046l-.063.319a1.6,1.6,0,0,0-.562-.022,1.253,1.253,0,0,0-.613.277,1.556,1.556,0,0,0-.417.486,2.614,2.614,0,0,0-.226.568q-.078.293-.13.556l-.42,2.12Z" transform="translate(-1040.97 -646.194)" fill="#fff"/>
        <path id="Tracé_1059" data-name="Tracé 1059" d="M1091.655,643.1a2.048,2.048,0,0,1-1.079-.267,1.477,1.477,0,0,1-.628-.751,2.025,2.025,0,0,1-.058-1.134l.735-3.707h.335l-.713,3.6a1.95,1.95,0,0,0,0,.9,1.313,1.313,0,0,0,.343.6,1.466,1.466,0,0,0,.54.335,1.777,1.777,0,0,0,.589.106,2.164,2.164,0,0,0,.631-.106,2.414,2.414,0,0,0,.672-.335,2.3,2.3,0,0,0,.582-.6,2.428,2.428,0,0,0,.358-.9l.713-3.6h.335l-.735,3.707a2.641,2.641,0,0,1-2.619,2.152Z" transform="translate(-1074.814 -637.123)" fill="#fff"/>
        <path id="Tracé_1060" data-name="Tracé 1060" d="M1130.783,642.982l1.138-5.739h2.176a1.466,1.466,0,0,1,.73.177,1.08,1.08,0,0,1,.464.5,1.173,1.173,0,0,1,.065.737,1.76,1.76,0,0,1-.429.835,1.845,1.845,0,0,1-.8.536l.022-.191a1.5,1.5,0,0,1,.8.588,1.324,1.324,0,0,1,.143,1.014,1.813,1.813,0,0,1-.389.835,1.937,1.937,0,0,1-.708.528,2.171,2.171,0,0,1-.884.183Zm.4-.335h1.833a2.129,2.129,0,0,0,.775-.14,1.611,1.611,0,0,0,.606-.4,1.277,1.277,0,0,0,.32-.638,1.208,1.208,0,0,0-.043-.68,1.024,1.024,0,0,0-.378-.486,1.059,1.059,0,0,0-.62-.181h-1.993Zm.566-2.854h1.841a1.337,1.337,0,0,0,.623-.156,1.585,1.585,0,0,0,.511-.418,1.349,1.349,0,0,0,.276-.59.811.811,0,0,0-.188-.769,1.04,1.04,0,0,0-.781-.291h-1.841Z" transform="translate(-1110.332 -637.123)" fill="#fff"/>
        <path id="Tracé_1061" data-name="Tracé 1061" d="M1172.287,642.32a2.162,2.162,0,0,1-1.353-.383,1.784,1.784,0,0,1-.65-1.056,3.727,3.727,0,0,1,.02-1.55,4.582,4.582,0,0,1,.594-1.55,3.123,3.123,0,0,1,1.068-1.056,2.9,2.9,0,0,1,1.5-.383,2.021,2.021,0,0,1,1.514.524,2.07,2.07,0,0,1,.552,1.4l-.367.08a1.825,1.825,0,0,0-.475-1.214,1.711,1.711,0,0,0-1.291-.452,2.431,2.431,0,0,0-1.293.339,2.758,2.758,0,0,0-.922.939,4.313,4.313,0,0,0-.528,1.377,3.327,3.327,0,0,0-.034,1.375,1.578,1.578,0,0,0,.557.939,1.823,1.823,0,0,0,1.166.341,2.4,2.4,0,0,0,1.471-.454,3.012,3.012,0,0,0,.956-1.212l.335.08a3.4,3.4,0,0,1-1.106,1.4A2.84,2.84,0,0,1,1172.287,642.32Z" transform="translate(-1144.533 -636.341)" fill="#fff"/>
        <path id="Tracé_1062" data-name="Tracé 1062" d="M1213.815,642.982l1.138-5.739h.335l-1.138,5.739Z" transform="translate(-1182.355 -637.123)" fill="#fff"/>
      </g>
    </g>
  </g>
</svg>
