<svg xmlns="http://www.w3.org/2000/svg" width="100.269" height="101.655" viewBox="0 0 100.269 101.655">
  <g id="fixez" transform="translate(-1304.865 -1910.134)">
    <path id="Tracé_1008" data-name="Tracé 1008" d="M966.273,181.032H958.91a3.372,3.372,0,0,0-3.369,3.369v7.367a3.372,3.372,0,0,0,3.369,3.369h7.363a3.37,3.37,0,0,0,3.373-3.369V184.4A3.37,3.37,0,0,0,966.273,181.032Zm1.022,10.736a1.018,1.018,0,0,1-1.022,1.014H958.91a1.015,1.015,0,0,1-1.018-1.014V184.4a1.022,1.022,0,0,1,1.018-1.022h7.363A1.025,1.025,0,0,1,967.3,184.4Z" transform="translate(365.184 1763.66)" fill="rgba(0,0,0,0.54)"/>
    <path id="Tracé_1009" data-name="Tracé 1009" d="M1010.663,181.032H1003.3a3.372,3.372,0,0,0-3.369,3.369v7.367a3.372,3.372,0,0,0,3.369,3.369h7.363a3.37,3.37,0,0,0,3.373-3.369V184.4A3.37,3.37,0,0,0,1010.663,181.032Zm1.022,10.736a1.018,1.018,0,0,1-1.022,1.014H1003.3a1.018,1.018,0,0,1-1.022-1.014V184.4a1.025,1.025,0,0,1,1.022-1.022h7.363a1.025,1.025,0,0,1,1.022,1.022Z" transform="translate(338.943 1763.66)" fill="rgba(0,0,0,0.54)"/>
    <path id="Tracé_1010" data-name="Tracé 1010" d="M1055.053,181.032h-7.363a3.372,3.372,0,0,0-3.369,3.369v7.367a3.372,3.372,0,0,0,3.369,3.369h7.363a3.37,3.37,0,0,0,3.373-3.369V184.4A3.37,3.37,0,0,0,1055.053,181.032Zm1.022,10.736a1.018,1.018,0,0,1-1.022,1.014h-7.363a1.015,1.015,0,0,1-1.018-1.014V184.4a1.022,1.022,0,0,1,1.018-1.022h7.363a1.025,1.025,0,0,1,1.022,1.022Z" transform="translate(312.701 1763.66)" fill="rgba(0,0,0,0.54)"/>
    <path id="Tracé_1011" data-name="Tracé 1011" d="M1099.443,181.032h-7.363a3.369,3.369,0,0,0-3.369,3.369v7.367a3.369,3.369,0,0,0,3.369,3.369h7.363a3.37,3.37,0,0,0,3.373-3.369V184.4A3.37,3.37,0,0,0,1099.443,181.032Zm1.018,10.736a1.015,1.015,0,0,1-1.018,1.014h-7.363a1.018,1.018,0,0,1-1.022-1.014V184.4a1.025,1.025,0,0,1,1.022-1.022h7.363a1.022,1.022,0,0,1,1.018,1.022Z" transform="translate(286.46 1763.66)" fill="rgba(0,0,0,0.54)"/>
    <path id="Tracé_1012" data-name="Tracé 1012" d="M966.273,226.562H958.91a3.378,3.378,0,0,0-3.369,3.373V237.3a3.371,3.371,0,0,0,3.369,3.365h7.363a3.37,3.37,0,0,0,3.373-3.365v-7.367A3.376,3.376,0,0,0,966.273,226.562ZM967.3,237.3a1.022,1.022,0,0,1-1.022,1.018H958.91a1.018,1.018,0,0,1-1.018-1.018v-7.367a1.018,1.018,0,0,1,1.018-1.018h7.363a1.021,1.021,0,0,1,1.022,1.018Z" transform="translate(365.184 1736.745)" fill="rgba(0,0,0,0.54)"/>
    <path id="Tracé_1013" data-name="Tracé 1013" d="M1010.663,226.562H1003.3a3.378,3.378,0,0,0-3.369,3.373V237.3a3.371,3.371,0,0,0,3.369,3.365h7.363a3.37,3.37,0,0,0,3.373-3.365v-7.367A3.376,3.376,0,0,0,1010.663,226.562Zm1.022,10.74a1.022,1.022,0,0,1-1.022,1.018H1003.3a1.022,1.022,0,0,1-1.022-1.018v-7.367a1.021,1.021,0,0,1,1.022-1.018h7.363a1.021,1.021,0,0,1,1.022,1.018Z" transform="translate(338.943 1736.745)" fill="rgba(0,0,0,0.54)"/>
    <path id="Tracé_1014" data-name="Tracé 1014" d="M1056.073,236.368v.936a1.022,1.022,0,0,1-1.022,1.018h-.932l-1.877,1.877a2.748,2.748,0,0,1-.63.47h3.438a3.369,3.369,0,0,0,3.373-3.365v-3.287Zm-7.715,3.831-4.039-4.039V237.3a3.371,3.371,0,0,0,3.369,3.365h1.3A2.748,2.748,0,0,1,1048.358,240.2Zm6.693-13.635h-7.363a3.378,3.378,0,0,0-3.369,3.373V231.5a2.746,2.746,0,0,1,2.351-.323v-1.239a1.018,1.018,0,0,1,1.018-1.018h7.363a1.026,1.026,0,0,1,.54.155l1.676-1.676A3.348,3.348,0,0,0,1055.051,226.564Z" transform="translate(312.703 1736.744)" fill="#00975f"/>
    <path id="Tracé_1015" data-name="Tracé 1015" d="M1060.519,231.227l-9.273,9.273a1.7,1.7,0,0,1-2.392,0l-1.128-1.128-1.3-1.308-2.028-2.028a1.647,1.647,0,0,1-.323-.454,1.689,1.689,0,0,1,0-1.484,1.647,1.647,0,0,1,.323-.454,1.687,1.687,0,0,1,2.028-.274,1.544,1.544,0,0,1,.364.274l2.069,2.073a1.7,1.7,0,0,0,2.392,0l6.881-6.881a1.691,1.691,0,0,1,2.392,2.392Z" transform="translate(312.951 1735.694)" fill="#00975f"/>
    <path id="Tracé_1016" data-name="Tracé 1016" d="M1099.443,226.562h-7.363a3.375,3.375,0,0,0-3.369,3.373V237.3a3.369,3.369,0,0,0,3.369,3.365h7.363a3.37,3.37,0,0,0,3.373-3.365v-7.367A3.376,3.376,0,0,0,1099.443,226.562Zm1.018,10.74a1.018,1.018,0,0,1-1.018,1.018h-7.363a1.022,1.022,0,0,1-1.022-1.018v-7.367a1.021,1.021,0,0,1,1.022-1.018h7.363a1.018,1.018,0,0,1,1.018,1.018Z" transform="translate(286.46 1736.745)" fill="rgba(0,0,0,0.54)"/>
    <path id="Tracé_1017" data-name="Tracé 1017" d="M966.273,272.092H958.91a3.378,3.378,0,0,0-3.369,3.373v7.371a3.371,3.371,0,0,0,3.369,3.365h7.363a3.37,3.37,0,0,0,3.373-3.365v-7.371A3.376,3.376,0,0,0,966.273,272.092Zm1.022,10.744a1.018,1.018,0,0,1-1.022,1.014H958.91a1.015,1.015,0,0,1-1.018-1.014v-7.371a1.018,1.018,0,0,1,1.018-1.018h7.363a1.021,1.021,0,0,1,1.022,1.018Z" transform="translate(365.184 1709.83)" fill="rgba(0,0,0,0.54)"/>
    <path id="Tracé_1018" data-name="Tracé 1018" d="M1010.663,272.092H1003.3a3.378,3.378,0,0,0-3.369,3.373v7.371a3.371,3.371,0,0,0,3.369,3.365h7.363a3.37,3.37,0,0,0,3.373-3.365v-7.371A3.376,3.376,0,0,0,1010.663,272.092Zm1.022,10.744a1.018,1.018,0,0,1-1.022,1.014H1003.3a1.018,1.018,0,0,1-1.022-1.014v-7.371a1.021,1.021,0,0,1,1.022-1.018h7.363a1.021,1.021,0,0,1,1.022,1.018Z" transform="translate(338.943 1709.83)" fill="rgba(0,0,0,0.54)"/>
    <path id="Tracé_1019" data-name="Tracé 1019" d="M1055.053,272.092h-7.363a3.378,3.378,0,0,0-3.369,3.373v7.371a3.371,3.371,0,0,0,3.369,3.365h7.363a3.37,3.37,0,0,0,3.373-3.365v-7.371A3.376,3.376,0,0,0,1055.053,272.092Zm1.022,10.744a1.018,1.018,0,0,1-1.022,1.014h-7.363a1.015,1.015,0,0,1-1.018-1.014v-7.371a1.018,1.018,0,0,1,1.018-1.018h7.363a1.021,1.021,0,0,1,1.022,1.018Z" transform="translate(312.701 1709.83)" fill="rgba(0,0,0,0.54)"/>
    <path id="Tracé_1020" data-name="Tracé 1020" d="M1099.443,272.092h-7.363a3.375,3.375,0,0,0-3.369,3.373v7.371a3.369,3.369,0,0,0,3.369,3.365h7.363a3.37,3.37,0,0,0,3.373-3.365v-7.371A3.376,3.376,0,0,0,1099.443,272.092Zm1.018,10.744a1.015,1.015,0,0,1-1.018,1.014h-7.363a1.018,1.018,0,0,1-1.022-1.014v-7.371a1.021,1.021,0,0,1,1.022-1.018h7.363a1.018,1.018,0,0,1,1.018,1.018Z" transform="translate(286.46 1709.83)" fill="rgba(0,0,0,0.54)"/>
    <path id="Tracé_1021" data-name="Tracé 1021" d="M1006.159,115.324h-5.413v7.228a7.089,7.089,0,1,1-14.179,0v-7.228h-12.6v7.1a7.089,7.089,0,1,1-14.179,0v-7.1H947.2v7.1a7.089,7.089,0,1,1-14.179,0v-7.1h-5.413a10.858,10.858,0,0,0-10.859,10.859v72.239a10.862,10.862,0,0,0,10.859,10.863h78.551a10.862,10.862,0,0,0,10.859-10.863V126.183A10.858,10.858,0,0,0,1006.159,115.324Zm2.146,77.116a7.346,7.346,0,0,1-7.347,7.343h-68.15a7.347,7.347,0,0,1-7.351-7.343V136.261h82.848Z" transform="translate(388.116 1802.504)" fill="rgba(0,0,0,0.54)"/>
    <g id="Groupe_294" data-name="Groupe 294" transform="translate(-2 26)">
      <path id="Tracé_1022" data-name="Tracé 1022" d="M972.216,102.708v10.037a3.757,3.757,0,1,1-7.515,0V102.708a3.757,3.757,0,0,1,7.515,0Z" transform="translate(361.77 1785.183)" fill="rgba(0,0,0,0.54)"/>
      <path id="Tracé_1024" data-name="Tracé 1024" d="M1103.186,103.009V113.05a3.757,3.757,0,0,1-7.515,0V103.009a3.757,3.757,0,0,1,7.515,0Z" transform="translate(284.346 1785.005)" fill="rgba(0,0,0,0.54)"/>
      <path id="Tracé_1026" data-name="Tracé 1026" d="M1037.7,102.708v10.037a3.757,3.757,0,1,1-7.515,0V102.708a3.757,3.757,0,1,1,7.515,0Z" transform="translate(323.061 1785.183)" fill="rgba(0,0,0,0.54)"/>
    </g>
  </g>
</svg>
