<svg xmlns="http://www.w3.org/2000/svg" xmlns:xlink="http://www.w3.org/1999/xlink" width="146.491" height="40.06" viewBox="0 0 146.491 40.06">
  <defs>
    <linearGradient id="linear-gradient" x1="0.485" y1="0.455" x2="0.169" y2="1.332" gradientUnits="objectBoundingBox">
      <stop offset="0" stop-opacity="0"/>
      <stop offset="1" stop-opacity="0.302"/>
    </linearGradient>
  </defs>
  <g id="Groupe_436" data-name="Groupe 436" transform="translate(10942.981 6444.917)">
    <g id="Groupe_434" data-name="Groupe 434" transform="translate(-11332.719 -6832.192)">
      <path id="Tracé_1045" data-name="Tracé 1045" d="M642.607,484.3v4.244a4.7,4.7,0,0,0-1.745-.157,5.014,5.014,0,0,0-1.8.458,4.017,4.017,0,0,0-2.19,2.414,5.771,5.771,0,0,0-.284,1.865v9.224h-4.578V488.309a4.011,4.011,0,0,1,4.011-4.011h0V487.2a6.418,6.418,0,0,1,.5-.766,4.894,4.894,0,0,1,1.435-1.269,5.751,5.751,0,0,1,1.422-.626,7.534,7.534,0,0,1,1.588-.286A8.549,8.549,0,0,1,642.607,484.3Z" transform="translate(-211.159 -84.506)" fill="#00975f"/>
      <path id="Tracé_1046" data-name="Tracé 1046" d="M743.964,489.18a12.524,12.524,0,0,0-1.959-5.393,7.858,7.858,0,0,0-3.724-2.985,8.465,8.465,0,0,0-5.007-.193,9.15,9.15,0,0,0-4.326,2.266,8.5,8.5,0,0,0-2.357,4.049,10.756,10.756,0,0,0,.041,5.279,9.542,9.542,0,0,0,2.266,4.4,8.614,8.614,0,0,0,3.975,2.444,9.766,9.766,0,0,0,5.031.042,8.922,8.922,0,0,0,4.362-2.436,8.014,8.014,0,0,0,2.249-4.481l-1.245-.059a5.943,5.943,0,0,0-4.491,1.8l-.016.016a4.285,4.285,0,0,1-2.093,1.094,3.862,3.862,0,0,1-3.448-.6,5.269,5.269,0,0,1-1.593-2.329Zm-12.992-.406a5.046,5.046,0,0,1,.4-2.214,4.051,4.051,0,0,1,3-2.157,3.3,3.3,0,0,1,3.067.521,4.943,4.943,0,0,1,1.273,2.026Z" transform="translate(-293.318 -81.098)" fill="#00975f"/>
      <path id="Tracé_1047" data-name="Tracé 1047" d="M897.219,437.892v6.6a7.364,7.364,0,0,0-4.076-1.086,8.17,8.17,0,0,0-4.513,1.237,8.334,8.334,0,0,0-2.984,3.385,11.858,11.858,0,0,0-.015,9.767,8.407,8.407,0,0,0,2.916,3.409,8.441,8.441,0,0,0,8.855,0q.2-.138.386-.288v1.04h0a4.009,4.009,0,0,0,4.009-4.009V437.892Zm.168,17.915a3.8,3.8,0,0,1-1.313,1.921,3.954,3.954,0,0,1-2.432.685,3.788,3.788,0,0,1-2.406-.735,4.333,4.333,0,0,1-1.387-1.98,8.067,8.067,0,0,1-.451-2.766,7.769,7.769,0,0,1,.469-2.75,4.356,4.356,0,0,1,1.446-1.987,3.994,3.994,0,0,1,2.5-.744,3.627,3.627,0,0,1,2.3.685,3.879,3.879,0,0,1,1.278,1.921,10.5,10.5,0,0,1,0,5.749Z" transform="translate(-431.291 -44.115)" fill="#00975f"/>
      <path id="Tracé_1048" data-name="Tracé 1048" d="M1053.212,401.544h-8.1l-7.15,23.4a4.137,4.137,0,0,0,3.956,5.346h0l1.818-5.986h10.824l1.847,5.986h5.588Zm-7.935,17.683,3.829-12.6,3.887,12.6Z" transform="translate(-564.805 -12.435)" fill="#00975f"/>
      <path id="Tracé_1049" data-name="Tracé 1049" d="M1262.2,485.441a8.328,8.328,0,0,0-2.981-3.385,8.175,8.175,0,0,0-4.513-1.237,7.249,7.249,0,0,0-4.327,1.254c-.109.076-.214.157-.318.242v-.995h-4.011v21.49a4.58,4.58,0,0,0,4.58,4.58h0v-8.65a7.814,7.814,0,0,0,4.31,1.13,7.657,7.657,0,0,0,4.362-1.254,8.425,8.425,0,0,0,2.916-3.409,11.016,11.016,0,0,0,1.045-4.862A10.906,10.906,0,0,0,1262.2,485.441Zm-4.2,7.671a4.334,4.334,0,0,1-1.387,1.98,3.785,3.785,0,0,1-2.406.735,3.958,3.958,0,0,1-2.432-.685,3.8,3.8,0,0,1-1.311-1.921,10.5,10.5,0,0,1,0-5.749,3.877,3.877,0,0,1,1.278-1.921,3.616,3.616,0,0,1,2.3-.685,4,4,0,0,1,2.5.744,4.356,4.356,0,0,1,1.446,1.987,7.768,7.768,0,0,1,.467,2.75A8.065,8.065,0,0,1,1258,493.111Z" transform="translate(-746.329 -81.528)" fill="#00975f"/>
      <path id="Tracé_1050" data-name="Tracé 1050" d="M1412.4,485.441a8.328,8.328,0,0,0-2.982-3.385,8.18,8.18,0,0,0-4.512-1.237,7.261,7.261,0,0,0-4.329,1.254c-.109.076-.214.157-.316.24v-.992h-4.011v21.492a4.578,4.578,0,0,0,4.578,4.578h0v-8.652a7.8,7.8,0,0,0,4.312,1.132,7.657,7.657,0,0,0,4.362-1.254,8.44,8.44,0,0,0,2.916-3.409,11.846,11.846,0,0,0-.017-9.767Zm-4.2,7.671a4.332,4.332,0,0,1-1.387,1.98,3.788,3.788,0,0,1-2.406.735,3.954,3.954,0,0,1-2.432-.685,3.785,3.785,0,0,1-1.311-1.921,10.495,10.495,0,0,1,0-5.749,3.864,3.864,0,0,1,1.278-1.921,3.617,3.617,0,0,1,2.3-.685,4,4,0,0,1,2.5.744,4.372,4.372,0,0,1,1.446,1.987,7.818,7.818,0,0,1,.467,2.75A8.068,8.068,0,0,1,1408.2,493.111Z" transform="translate(-877.237 -81.528)" fill="#00975f"/>
      <path id="Tracé_1051" data-name="Tracé 1051" d="M742.609,422.786a14.07,14.07,0,0,1-2.306,7.567,11.822,11.822,0,0,0,1.32-.836,12.641,12.641,0,0,0,2.867-2.889,13.832,13.832,0,0,0,1.873-3.758A7.656,7.656,0,0,0,742.609,422.786Z" transform="translate(-305.539 -30.781)" fill="#00975f"/>
      <g id="Groupe_367" data-name="Groupe 367" transform="translate(389.737 387.276)">
        <path id="Tracé_1052" data-name="Tracé 1052" d="M411.387,505.864v.013a15.07,15.07,0,0,1-7.147,1.615,15.273,15.273,0,0,1-6.765-1.427c-.334-.162-.659-.336-.976-.527a13.008,13.008,0,0,1-5.007-5.466,18.047,18.047,0,0,1-1.755-8.166,22.034,22.034,0,0,1,.132-2.465A14.752,14.752,0,0,0,400.845,501.6h0a9.37,9.37,0,0,0,3.393.573,10.04,10.04,0,0,0,2.65-.328,7,7,0,0,0,2.217-1.024c.077-.052.152-.108.225-.165a7.488,7.488,0,0,0,.616-.53h0a1.369,1.369,0,0,1-.394,2.1,14.01,14.01,0,0,1-17.223-3.456,14.018,14.018,0,0,0,17.7,6.185A.971.971,0,0,1,411.387,505.864Z" transform="translate(-389.737 -476.32)" fill="#00975f"/>
        <path id="Tracé_1053" data-name="Tracé 1053" d="M418.733,396.762h0l-5.693,1.58v0a9.648,9.648,0,0,0-.594-1.509c-.032-.066-.066-.133-.1-.2-.1-.191-.208-.376-.32-.554a7.4,7.4,0,0,0-1.79-1.966,6.832,6.832,0,0,0-.781-.513,7.334,7.334,0,0,0-1.8-.707c-.217-.054-.442-.1-.671-.142s-.466-.069-.708-.094c-.362-.035-.739-.052-1.128-.052a9.377,9.377,0,0,0-3.469.6,6.909,6.909,0,0,0-1.279.668,7.571,7.571,0,0,0-.89.7s0,0,0,0a7.574,7.574,0,0,0-.773.828c-.06.075-.119.151-.175.229-.169.231-.329.473-.48.728a9.058,9.058,0,0,0-.536,1.089,15.839,15.839,0,0,0,0,10.848,8.164,8.164,0,0,0,1.564,2.479c.065.068.129.135.2.2a7.224,7.224,0,0,0,.861.731c.077.055.156.111.234.163q.157.1.319.2a6.825,6.825,0,0,0,.677.348c.117.052.236.1.357.148a14.751,14.751,0,0,1-10.976-12.157V400.4q.065-.591.163-1.159a16.248,16.248,0,0,1,1.46-4.537,13.359,13.359,0,0,1,2.779-3.781q.335-.317.7-.61a13.1,13.1,0,0,1,1.532-1.073l.211-.125q.531-.3,1.095-.559a13.666,13.666,0,0,1,2.38-.811c.236-.058.474-.109.716-.157.4-.077.818-.14,1.239-.188s.853-.08,1.295-.1h0c.265-.009.533-.015.8-.015q.321,0,.637.009.474.016.932.052c.2.015.406.035.607.06s.4.051.593.08q.439.067.864.157a14,14,0,0,1,2.165.639c.257.1.511.208.759.322a12.3,12.3,0,0,1,2.1,1.236,13.3,13.3,0,0,1,1.239,1.021,0,0,0,0,1,0,0c.129.12.256.242.38.366q.416.42.791.873c.086.1.172.211.256.32a13.7,13.7,0,0,1,1.657,2.764c.114.253.222.508.323.771.068.174.134.351.2.531C418.674,396.58,418.7,396.671,418.733,396.762Z" transform="translate(-390.638 -387.286)" fill="#00975f"/>
        <path id="Tracé_1054" data-name="Tracé 1054" d="M418.721,396.752l-5.693,1.578a9.651,9.651,0,0,0-.594-1.509c-.032-.066-.068-.133-.1-.2q-.15-.287-.319-.554a7.4,7.4,0,0,0-1.79-1.966,6.829,6.829,0,0,0-.781-.513,7.334,7.334,0,0,0-1.8-.707c-.217-.055-.442-.1-.671-.142s-.466-.071-.708-.094c-.362-.035-.739-.054-1.128-.054a9.342,9.342,0,0,0-3.469.6,6.908,6.908,0,0,0-1.279.668,7.263,7.263,0,0,0-.89.7s0,0,0,0a7.168,7.168,0,0,0-.773.828c-.06.075-.119.151-.175.229a7.891,7.891,0,0,0-.48.728,9.058,9.058,0,0,0-.536,1.089,15.839,15.839,0,0,0,0,10.848,8.165,8.165,0,0,0,1.564,2.479c.065.069.131.137.2.2a7.224,7.224,0,0,0,.861.731c.077.055.156.109.234.162.1.069.211.135.319.2a7.2,7.2,0,0,0,.677.348c.117.052.236.1.357.148A14.751,14.751,0,0,1,390.761,400.4a.009.009,0,0,1,0-.006q.065-.591.165-1.159a16.249,16.249,0,0,1,1.46-4.537,13.359,13.359,0,0,1,2.779-3.781c.223-.211.456-.416.7-.61a13.112,13.112,0,0,1,1.532-1.075c.069-.042.14-.083.211-.123q.531-.3,1.095-.559a13.553,13.553,0,0,1,2.38-.813c.236-.057.474-.109.716-.155.4-.077.818-.14,1.239-.188s.854-.082,1.295-.1h0q.4-.016.8-.017c.214,0,.426,0,.637.011q.474.014.932.052c.2.015.406.035.607.06s.4.049.593.08q.439.067.864.157a13.829,13.829,0,0,1,2.165.639c.257.1.511.206.759.322a12.4,12.4,0,0,1,2.1,1.235,13.332,13.332,0,0,1,1.239,1.022,0,0,0,0,1,0,0c.129.119.256.242.38.366q.416.42.791.873c.086.1.171.212.256.32a13.769,13.769,0,0,1,1.656,2.764c.114.253.222.508.323.771.068.174.132.351.2.531C418.661,396.571,418.692,396.661,418.721,396.752Z" transform="translate(-390.628 -387.276)" fill="url(#linear-gradient)"/>
        <path id="Tracé_1055" data-name="Tracé 1055" d="M558.653,555.451c0-.1.048-1.616.055-2.5a22.92,22.92,0,0,0,3.427-3,27.8,27.8,0,0,1-3.689,2.218c-.571-.58-.875-.922-1.474-1.63a.415.415,0,0,1,.317-.646,27.068,27.068,0,0,0,6.268-1.741c.277-.1.441.376.26.725a25.359,25.359,0,0,1-4.538,6.845A.373.373,0,0,1,558.653,555.451Z" transform="translate(-535.428 -527.474)" fill="#00975f"/>
      </g>
    </g>
    <g id="Groupe_435" data-name="Groupe 435" transform="translate(-11826.437 -7037.613)">
      <path id="Tracé_1003" data-name="Tracé 1003" d="M961.883,640.069a1.8,1.8,0,0,1-.446-.056,1.418,1.418,0,0,1-.368-.143v2.1h-1.144v-6.144h.875l.121.459a1.974,1.974,0,0,1,.572-.386,1.748,1.748,0,0,1,.719-.143,1.608,1.608,0,0,1,1.287.55,2.261,2.261,0,0,1,.472,1.521,2.636,2.636,0,0,1-.165.966,2.027,2.027,0,0,1-.451.706,1.853,1.853,0,0,1-.667.429A2.276,2.276,0,0,1,961.883,640.069Zm.017-3.449a.934.934,0,0,0-.5.134,1.31,1.31,0,0,0-.329.273V639a1.029,1.029,0,0,0,.667.217,1.018,1.018,0,0,0,.377-.074.934.934,0,0,0,.338-.234,1.16,1.16,0,0,0,.243-.42,1.93,1.93,0,0,0,.091-.633,2.038,2.038,0,0,0-.056-.494,1.208,1.208,0,0,0-.169-.39.854.854,0,0,0-.277-.26A.748.748,0,0,0,961.9,636.621Z" transform="translate(0 -9.212)"/>
      <path id="Tracé_1004" data-name="Tracé 1004" d="M996.677,636.2a3.388,3.388,0,0,1,.789-.333,3.254,3.254,0,0,1,.884-.117,2.511,2.511,0,0,1,.68.087,1.4,1.4,0,0,1,.529.273,1.194,1.194,0,0,1,.338.477,1.863,1.863,0,0,1,.117.7v2.686h-.893l-.1-.425h-.035a1.375,1.375,0,0,1-.507.381,1.726,1.726,0,0,1-.715.139,1.665,1.665,0,0,1-.6-.1,1.353,1.353,0,0,1-.442-.269,1.072,1.072,0,0,1-.273-.4,1.373,1.373,0,0,1-.091-.5,1.175,1.175,0,0,1,.152-.611,1.217,1.217,0,0,1,.42-.42,2.007,2.007,0,0,1,.628-.243,3.657,3.657,0,0,1,.776-.078h.52v-.251a.493.493,0,0,0-.178-.42.811.811,0,0,0-.5-.134,1.817,1.817,0,0,0-.516.078,3.092,3.092,0,0,0-.585.251Zm2.184,1.958-.373.009a1.324,1.324,0,0,0-.736.178.474.474,0,0,0-.208.386.433.433,0,0,0,.178.4.757.757,0,0,0,.4.108.784.784,0,0,0,.429-.13.936.936,0,0,0,.308-.3Z" transform="translate(-31.822 -9.212)"/>
      <path id="Tracé_1005" data-name="Tracé 1005" d="M1032.993,639.974v-4.133h.892l.13.745a1.531,1.531,0,0,1,.468-.581,1.265,1.265,0,0,1,.806-.251,1.327,1.327,0,0,1,.355.043,1.111,1.111,0,0,1,.26.1l-.191.91a1.094,1.094,0,0,0-.243-.091,1.361,1.361,0,0,0-.347-.039.958.958,0,0,0-.706.282,1.269,1.269,0,0,0-.281.923v2.088Z" transform="translate(-63.822 -9.212)"/>
      <path id="Tracé_1006" data-name="Tracé 1006" d="M1075.929,625.961h1.187v3.267a1.648,1.648,0,0,0,.273,1.027,1,1,0,0,0,.845.351.928.928,0,0,0,.814-.355,1.554,1.554,0,0,0,.251-.919v-3.371h1.187v3.284a2,2,0,0,1-2.253,2.27,2.408,2.408,0,0,1-1.69-.563,2.263,2.263,0,0,1-.615-1.75Z" transform="translate(-101.325 -0.658)"/>
      <path id="Tracé_1007" data-name="Tracé 1007" d="M1123.28,625.961a2.253,2.253,0,0,1,1.369.373,1.229,1.229,0,0,1,.5,1.049,1.071,1.071,0,0,1-.091.451,1.151,1.151,0,0,1-.234.342,1.359,1.359,0,0,1-.321.238,1.483,1.483,0,0,1-.36.139,1.818,1.818,0,0,1,.455.143,1.265,1.265,0,0,1,.372.264,1.181,1.181,0,0,1,.252.394,1.417,1.417,0,0,1,.091.524,1.314,1.314,0,0,1-.147.62,1.467,1.467,0,0,1-.42.49,2,2,0,0,1-.658.321,3.037,3.037,0,0,1-.854.113h-1.907v-5.459Zm-.763,2.184h.563a1.023,1.023,0,0,0,.62-.169.589.589,0,0,0,.23-.507.522.522,0,0,0-.212-.455,1.044,1.044,0,0,0-.611-.152h-.589Zm0,2.374h.563a1.416,1.416,0,0,0,.728-.169.623.623,0,0,0,.286-.585.589.589,0,0,0-.3-.559,1.511,1.511,0,0,0-.745-.169h-.529Z" transform="translate(-140.981 -0.658)"/>
      <path id="Tracé_1008" data-name="Tracé 1008" d="M1161.324,629.939a2.825,2.825,0,0,0,.676-.069,1.7,1.7,0,0,0,.477-.191l.243.867a2.318,2.318,0,0,1-.589.217,3.882,3.882,0,0,1-.927.1,3.211,3.211,0,0,1-1.135-.195,2.491,2.491,0,0,1-1.482-1.456,3.436,3.436,0,0,1,0-2.344,2.557,2.557,0,0,1,.572-.888,2.493,2.493,0,0,1,.9-.568,3.777,3.777,0,0,1,2.093-.1,3.007,3.007,0,0,1,.585.225l-.269.875a2.7,2.7,0,0,0-.5-.2,2.119,2.119,0,0,0-.611-.082,2.1,2.1,0,0,0-.667.1,1.406,1.406,0,0,0-.546.333,1.594,1.594,0,0,0-.368.589,2.878,2.878,0,0,0,0,1.724,1.615,1.615,0,0,0,.36.594,1.479,1.479,0,0,0,.537.351A1.847,1.847,0,0,0,1161.324,629.939Z" transform="translate(-173.341)"/>
      <path id="Tracé_1009" data-name="Tracé 1009" d="M1200.583,625.961v5.459H1199.4v-5.459Z" transform="translate(-209.168 -0.658)"/>
    </g>
  </g>
</svg>
