<svg xmlns="http://www.w3.org/2000/svg" width="87.508" height="97.502" viewBox="0 0 87.508 97.502">
  <g id="simulez" transform="translate(-484 -1484)">
    <path id="Tracé_983" data-name="Tracé 983" d="M191.449,98.951H127.68A9.692,9.692,0,0,0,118,108.63v71.093a9.691,9.691,0,0,0,9.679,9.679h41.281a24.633,24.633,0,0,1-7.767-6.06c-.352-.41-.692-.831-1.011-1.264h-32.5a2.355,2.355,0,0,1-2.355-2.355V108.63a2.358,2.358,0,0,1,2.355-2.355h63.769a2.358,2.358,0,0,1,2.355,2.355v38.224a24.516,24.516,0,0,1,7.324,7.759V108.63A9.692,9.692,0,0,0,191.449,98.951Z" transform="translate(365.999 1385.049)" fill="rgba(0,0,0,0.54)"/>
    <path id="Tracé_984" data-name="Tracé 984" d="M175.341,154.8a6.955,6.955,0,0,0,0,3.662h-7.752a1.831,1.831,0,0,1,0-3.662Z" transform="translate(335.73 1349.649)" fill="rgba(0,0,0,0.54)"/>
    <path id="Tracé_985" data-name="Tracé 985" d="M255.016,156.634a1.832,1.832,0,0,1-1.831,1.831h-24.6a6.955,6.955,0,0,0,0-3.662h24.6A1.832,1.832,0,0,1,255.016,156.634Z" transform="translate(295.909 1349.649)" fill="rgba(0,0,0,0.54)"/>
    <g id="Groupe_105" data-name="Groupe 105" transform="translate(512.11 1500.606)">
      <path id="Tracé_986" data-name="Tracé 986" d="M205.81,148.145a5.675,5.675,0,0,0-10.744,0,5.667,5.667,0,0,0,0,3.662,5.675,5.675,0,0,0,10.744,0,5.667,5.667,0,0,0,0-3.662Zm-1.992,3.662a3.843,3.843,0,0,1-6.76,0,3.837,3.837,0,0,1,0-3.662,3.843,3.843,0,0,1,6.76,0,3.837,3.837,0,0,1,0,3.662Z" transform="translate(-194.762 -144.3)" fill="rgba(0,0,0,0.54)"/>
    </g>
    <path id="Tracé_987" data-name="Tracé 987" d="M192.926,205.634a6.718,6.718,0,0,0,.249,1.831H167.589a1.831,1.831,0,0,1,0-3.662h25.582A6.862,6.862,0,0,0,192.926,205.634Z" transform="translate(335.73 1318.593)" fill="rgba(0,0,0,0.54)"/>
    <path id="Tracé_988" data-name="Tracé 988" d="M285.87,205.634a1.832,1.832,0,0,1-1.831,1.831h-6.771a6.721,6.721,0,0,0,.249-1.831,6.864,6.864,0,0,0-.245-1.831h6.767A1.832,1.832,0,0,1,285.87,205.634Z" transform="translate(265.055 1318.593)" fill="rgba(0,0,0,0.54)"/>
    <g id="Groupe_106" data-name="Groupe 106" transform="translate(529.94 1518.55)">
      <path id="Tracé_989" data-name="Tracé 989" d="M254.5,197.145a5.675,5.675,0,0,0-10.744,0,5.667,5.667,0,0,0,0,3.662,5.675,5.675,0,0,0,10.744,0,5.667,5.667,0,0,0,0-3.662Zm-1.992,3.662a3.843,3.843,0,0,1-6.76,0,3.837,3.837,0,0,1,0-3.662,3.843,3.843,0,0,1,6.76,0,3.837,3.837,0,0,1,0,3.662Z" transform="translate(-243.452 -193.3)" fill="rgba(0,0,0,0.54)"/>
    </g>
    <g id="Groupe_107" data-name="Groupe 107" transform="translate(499.877 1534.752)">
      <path id="Tracé_990" data-name="Tracé 990" d="M169.718,237.543h-5.735a2.63,2.63,0,0,0-2.626,2.626v5.738a2.627,2.627,0,0,0,2.626,2.622h5.735a2.625,2.625,0,0,0,2.626-2.622v-5.738A2.628,2.628,0,0,0,169.718,237.543Zm.795,8.364a.793.793,0,0,1-.795.791h-5.735a.793.793,0,0,1-.795-.791v-5.738a.8.8,0,0,1,.795-.795h5.735a.8.8,0,0,1,.795.795Z" transform="translate(-161.358 -237.543)" fill="rgba(0,0,0,0.54)"/>
    </g>
    <g id="Groupe_108" data-name="Groupe 108" transform="translate(513.335 1534.938)">
      <path id="Tracé_991" data-name="Tracé 991" d="M210.6,243.281a.792.792,0,0,0-.56-.234h-5.735a.792.792,0,0,0-.56.234.767.767,0,0,1,.56-.238h5.735A.767.767,0,0,1,210.6,243.281Z" transform="translate(-201.683 -241.216)" fill="rgba(0,0,0,0.54)"/>
      <path id="Tracé_992" data-name="Tracé 992" d="M206.468,238.053h-5.735a2.63,2.63,0,0,0-2.626,2.626v5.738a2.627,2.627,0,0,0,2.626,2.622h5.735a2.113,2.113,0,0,0,.4-.037,24.126,24.126,0,0,1,2.223-5.515v-2.809A2.628,2.628,0,0,0,206.468,238.053Zm.795,8.364a.775.775,0,0,1-.234.557.785.785,0,0,1-.56.234h-5.735a.785.785,0,0,1-.56-.234.775.775,0,0,1-.234-.557v-5.738a.777.777,0,0,1,.234-.56.7.7,0,0,1,.055-.051l.029-.022a.087.087,0,0,1,.033-.022.2.2,0,0,0,.029-.022.334.334,0,0,1,.037-.018.589.589,0,0,1,.066-.037h0a.491.491,0,0,1,.146-.048.1.1,0,0,1,.048,0,.152.152,0,0,1,.059-.007.277.277,0,0,1,.055,0h5.735a.277.277,0,0,1,.055,0,.152.152,0,0,1,.059.007.1.1,0,0,1,.048,0,.491.491,0,0,1,.146.048h0a.665.665,0,0,1,.194.121.7.7,0,0,1,.055.051.777.777,0,0,1,.234.56Z" transform="translate(-198.108 -238.053)" fill="rgba(0,0,0,0.54)"/>
    </g>
    <g id="Groupe_109" data-name="Groupe 109" transform="translate(499.877 1547.935)">
      <path id="Tracé_993" data-name="Tracé 993" d="M169.718,273.543h-5.735a2.63,2.63,0,0,0-2.626,2.626v5.738a2.627,2.627,0,0,0,2.626,2.622h5.735a2.625,2.625,0,0,0,2.626-2.622v-5.738A2.628,2.628,0,0,0,169.718,273.543Zm.795,8.364a.793.793,0,0,1-.795.791h-5.735a.793.793,0,0,1-.795-.791v-5.738a.8.8,0,0,1,.795-.795h5.735a.8.8,0,0,1,.795.795Z" transform="translate(-161.358 -273.543)" fill="rgba(0,0,0,0.54)"/>
    </g>
    <g id="Groupe_110" data-name="Groupe 110" transform="translate(513.335 1548.121)">
      <path id="Tracé_994" data-name="Tracé 994" d="M206.509,283.208h-5.775a.793.793,0,0,1-.795-.791v-5.738a.8.8,0,0,1,.795-.795h5.405c.055-.615.139-1.227.242-1.831h-5.647a2.63,2.63,0,0,0-2.626,2.626v5.738a2.627,2.627,0,0,0,2.626,2.622h5.735a2.247,2.247,0,0,0,.472-.048C206.776,284.4,206.629,283.808,206.509,283.208Z" transform="translate(-198.108 -274.053)" fill="rgba(0,0,0,0.54)"/>
    </g>
    <path id="Tracé_995" data-name="Tracé 995" d="M278.531,274.961,269.141,264a19.2,19.2,0,1,0-16.7,7.453c.54.043,1.076.061,1.612.058a18.991,18.991,0,0,0,9.079-2.353l9.386,10.954a3.96,3.96,0,0,0,6.014-5.155Zm-15.1-11.535a14.626,14.626,0,1,1-9.608-25.725,14.7,14.7,0,0,1,6.064,1.271,14.622,14.622,0,0,1,3.544,24.453Z" transform="translate(292.024 1300.003)" fill="#00975f"/>
    <g id="Groupe_111" data-name="Groupe 111" transform="translate(537.358 1543.752)">
      <path id="Tracé_997" data-name="Tracé 997" d="M280.82,269.438l-2.424,2.424.026,4.7a.2.2,0,0,1-.059.146.191.191,0,0,1-.143.059l-4.753.025-.249.249a2.522,2.522,0,0,1-3.567,0l-.227-.227-3.007.018a.2.2,0,0,1-.205-.2l-.015-3.043-.648-.648a2.521,2.521,0,0,1,0-3.566,2.565,2.565,0,0,1,.623-.458l-.022-4.087a.194.194,0,0,1,.059-.143.2.2,0,0,1,.143-.062l11.8-.062a.2.2,0,0,1,.205.2v.019a2.533,2.533,0,0,1,2.4-.428,2.644,2.644,0,0,0-2.607-2.23h-.011l-11.8.066a2.644,2.644,0,0,0-2.626,2.655l.066,11.8a2.642,2.642,0,0,0,2.64,2.625h.015l11.8-.066a2.644,2.644,0,0,0,2.626-2.655Z" transform="translate(-263.711 -262.121)" fill="rgba(0,0,0,0.54)"/>
    </g>
    <path id="Tracé_998" data-name="Tracé 998" d="M284.634,273.149l-2.659,2.659-4.757,4.753-1.1,1.1a1.548,1.548,0,0,1-.952.451h-.011a1.914,1.914,0,0,1-.245,0,1.556,1.556,0,0,1-.989-.454l-4.1-4.1a.289.289,0,0,1-.048-.055,1.544,1.544,0,0,1-.011-2.076c.018-.022.037-.044.059-.066a1.553,1.553,0,0,1,2.194,0l1.9,1.9a1.559,1.559,0,0,0,2.2,0l5.83-5.834.487-.487a1.56,1.56,0,0,1,1.948-.2,1.616,1.616,0,0,1,.245.2l0,0A1.558,1.558,0,0,1,284.634,273.149Z" transform="translate(270.06 1276.323)" fill="rgba(0,0,0,0.54)"/>
  </g>
</svg>
